<?xml version="1.0" encoding="UTF-8" standalone="no"?>
<!-- Created with Inkscape (http://www.inkscape.org/) -->

<svg
   width="210mm"
   height="297mm"
   viewBox="0 0 210 297"
   version="1.1"
   id="svg5"
   inkscape:version="1.1 (c4e8f9e, 2021-05-24)"
   sodipodi:docname="Interior Design.jpg.svg"
   inkscape:export-filename="/Users/henrylin/Downloads/Interior Design.png"
   inkscape:export-xdpi="96"
   inkscape:export-ydpi="96"
   xmlns:inkscape="http://www.inkscape.org/namespaces/inkscape"
   xmlns:sodipodi="http://sodipodi.sourceforge.net/DTD/sodipodi-0.dtd"
   xmlns="http://www.w3.org/2000/svg"
   xmlns:svg="http://www.w3.org/2000/svg">
  <sodipodi:namedview
     id="namedview7"
     pagecolor="#ffffff"
     bordercolor="#666666"
     borderopacity="1.0"
     inkscape:pageshadow="2"
     inkscape:pageopacity="0.0"
     inkscape:pagecheckerboard="0"
     inkscape:document-units="mm"
     showgrid="false"
     inkscape:zoom="0.69669099"
     inkscape:cx="114.11085"
     inkscape:cy="590.64923"
     inkscape:window-width="1920"
     inkscape:window-height="1027"
     inkscape:window-x="0"
     inkscape:window-y="25"
     inkscape:window-maximized="0"
     inkscape:current-layer="layer1" />
  <defs
     id="defs2" />
  <g
     inkscape:label="Layer 1"
     inkscape:groupmode="layer"
     id="layer1">
    <ellipse
       style="fill:none;stroke:#000000;stroke-width:1.165;stroke-opacity:1;stroke-miterlimit:4;stroke-dasharray:none"
       id="path1532"
       cx="72.353096"
       cy="243.88687"
       rx="23.033758"
       ry="23.304745" />
    <ellipse
       style="fill:none;stroke:#000000;stroke-width:1.165;stroke-opacity:1;stroke-miterlimit:4;stroke-dasharray:none"
       id="path1532-3"
       cx="71.540138"
       cy="195.10948"
       rx="23.033758"
       ry="23.304745" />
    <text
       xml:space="preserve"
       style="font-style:normal;font-weight:normal;font-size:10.5833px;line-height:1.25;font-family:sans-serif;fill:#000000;fill-opacity:1;stroke:none;stroke-width:1.165;stroke-miterlimit:4;stroke-dasharray:none"
       x="60.700733"
       y="198.90327"
       id="text4564"><tspan
         sodipodi:role="line"
         id="tspan4562"
         style="stroke-width:1.165;stroke-miterlimit:4;stroke-dasharray:none"
         x="60.700733"
         y="198.90327">馬達</tspan></text>
    <text
       xml:space="preserve"
       style="font-style:normal;font-weight:normal;font-size:10.5833px;line-height:1.25;font-family:sans-serif;fill:#000000;fill-opacity:1;stroke:none;stroke-width:1.165;stroke-miterlimit:4;stroke-dasharray:none"
       x="62.543999"
       y="247.4144"
       id="text4564-8"><tspan
         sodipodi:role="line"
         id="tspan4562-3"
         style="stroke-width:1.165;stroke-miterlimit:4;stroke-dasharray:none"
         x="62.543999"
         y="247.4144">馬達</tspan></text>
    <rect
       style="fill:none;stroke:#000000;stroke-width:1.165;stroke-opacity:1;stroke-miterlimit:4;stroke-dasharray:none"
       id="rect11457"
       width="5.4197083"
       height="72.624092"
       x="39.021896"
       y="184.81204" />
    <text
       xml:space="preserve"
       style="font-style:normal;font-weight:normal;font-size:10.5833px;line-height:1.25;font-family:sans-serif;fill:#000000;fill-opacity:1;stroke:none;stroke-width:0.264583"
       x="15.175181"
       y="222.75"
       id="text16631"><tspan
         sodipodi:role="line"
         id="tspan16629"
         style="stroke-width:0.264583"
         x="15.175181"
         y="222.75">出口</tspan></text>
    <path
       style="fill:none;stroke:#000000;stroke-width:1.165;stroke-linecap:butt;stroke-linejoin:miter;stroke-opacity:1;stroke-miterlimit:4;stroke-dasharray:none"
       d="m 89.425181,161.5073 -50.403283,0.54197 0.54197,-136.576642 H 187.5219 l 1.08394,176.682482 -106.226278,19.51095"
       id="path21475" />
    <path
       style="fill:none;stroke:#000000;stroke-width:1.165;stroke-linecap:butt;stroke-linejoin:miter;stroke-opacity:1;stroke-miterlimit:4;stroke-dasharray:none"
       d="m 39.021896,184.81204 3e-6,-22.76277"
       id="path21477" />
    <path
       style="fill:none;stroke:#000000;stroke-width:1.165;stroke-linecap:butt;stroke-linejoin:miter;stroke-opacity:1;stroke-miterlimit:4;stroke-dasharray:none"
       d="m 39.021895,257.43612 3e-6,28.72446 150.667882,-1.08395 -1.08394,-82.92152"
       id="path21479" />
    <path
       style="fill:none;stroke:#000000;stroke-width:1.065;stroke-linecap:butt;stroke-linejoin:miter;stroke-opacity:1;stroke-miterlimit:4;stroke-dasharray:none"
       d="m 89.425181,161.5073 c 0,0 20.267089,47.12607 -7.045621,60.15876"
       id="path21854" />
    <path
       style="fill:#ff5555;stroke:#000000;stroke-width:5.77759;stroke-miterlimit:4;stroke-dasharray:none"
       d="m 335.82461,824.53159 c 14.56903,-13.77878 24.11764,-31.81198 29.07175,-54.90401 1.88421,-8.7826 2.49339,-17.93609 2.40654,-36.16037 -0.12689,-26.61818 -2.1448,-41.86272 -9.20171,-69.51466 -8.83514,-34.61968 -16.00034,-54.0682 -20.43875,-55.47691 -1.6683,-0.52948 -44.48309,-0.48469 -95.14398,0.0996 l -92.11071,1.06225 0.52886,-184.2488 c 0.29088,-101.33684 0.92055,-216.05989 1.39928,-254.94012 l 0.87042,-70.691308 h 275.96756 275.96757 l 0.86624,56.337748 c 1.34009,87.15695 4.07974,604.10114 3.20618,604.97469 -0.42663,0.42663 -84.60275,16.17624 -187.05805,34.99912 -102.45531,18.82288 -188.07895,34.61601 -190.27476,35.09582 -3.56954,0.78001 -3.15187,0.0775 3.94356,-6.63307 z"
       id="path22066"
       transform="scale(0.26458333)" />
    <text
       xml:space="preserve"
       style="font-style:normal;font-weight:normal;font-size:15.7646px;line-height:1.25;font-family:sans-serif;fill:#000000;fill-opacity:1;stroke:none;stroke-width:0.394116"
       x="79.746895"
       y="99.822014"
       id="text23765"
       transform="scale(1.0106495,0.98946272)"><tspan
         sodipodi:role="line"
         style="stroke-width:0.394116"
         x="79.746895"
         y="99.822014"
         id="tspan23771">藥品存取</tspan></text>
    <path
       style="fill:none;stroke:#000000;stroke-width:0.264583px;stroke-linecap:butt;stroke-linejoin:miter;stroke-opacity:1"
       d="m 44.441604,257.43612 9.106167,-0.33086"
       id="path25478" />
    <path
       style="fill:none;stroke:#000000;stroke-width:0.264583px;stroke-linecap:butt;stroke-linejoin:miter;stroke-opacity:1"
       d="m 82.37956,221.66606 v 0"
       id="path25480" />
    <path
       style="fill:#008000;stroke:#000000;stroke-width:5.77759;stroke-miterlimit:4;stroke-dasharray:none"
       d="m 149.99476,1027.3187 v -51.61665 l 24.04223,-1.35961 24.04222,-1.35963 4.97161,5.70298 c 18.90524,21.68641 39.11663,32.04041 65.5323,33.57121 70.87774,4.1076 117.79492,-72.55078 82.93797,-135.51297 -6.35575,-11.48041 -17.19128,-23.25693 -28.1028,-30.54337 -4.77655,-3.18966 -8.44957,-5.84139 -8.16224,-5.89273 0.28732,-0.0513 89.01213,-16.4156 197.16625,-36.36503 108.15412,-19.94943 196.82542,-36.14274 197.04736,-35.98513 0.60016,0.42622 4.71014,305.35983 4.12364,305.94633 -0.27653,0.2765 -78.27159,1.1074 -173.32238,1.8465 -95.0508,0.739 -221.74735,1.7579 -281.5479,2.2642 l -108.72826,0.9205 z"
       id="path25554"
       transform="scale(0.26458333)" />
    <text
       xml:space="preserve"
       style="font-style:normal;font-weight:normal;font-size:10.5833px;line-height:1.25;font-family:sans-serif;fill:#000000;fill-opacity:1;stroke:none;stroke-width:0.264583"
       x="124.94479"
       y="254.44685"
       id="text27333"><tspan
         sodipodi:role="line"
         id="tspan27331"
         style="stroke-width:0.264583"
         x="124.94479"
         y="254.44685">線路處</tspan></text>
    <text
       xml:space="preserve"
       style="font-style:normal;font-weight:normal;font-size:10.5833px;line-height:1.25;font-family:sans-serif;fill:#000000;fill-opacity:1;stroke:none;stroke-width:0.264583"
       x="109.37417"
       y="20.507658"
       id="text34127"><tspan
         sodipodi:role="line"
         id="tspan34125"
         style="stroke-width:0.264583"
         x="109.37417"
         y="20.507658">從上放放入藥物</tspan></text>
  </g>
</svg>
