  0
SECTION
  2
HEADER
  9
$ACADVER
  1
AC1009
  9
$FILLMODE
 70
 0
  9
$SPLFRAME
 70
 1
  9
$EXTMIN
 10
0
 20
0
 30
0.0
  9
$EXTMAX
 10
41.6667
 20
41.6667
 30
0.0
  0
ENDSEC
  0
SECTION
  2
TABLES
  0
TABLE
  2
LAYER
 70
1
  0
LAYER
  2
0
 70
     0
 62
     7
  6
CONTINUOUS
  0
ENDTAB
  0
ENDSEC
  0
SECTION
  2
ENTITIES
  0
POLYLINE
  8
0
 62
     0
 66
     1
 10
0
 20
0
 30
0.0
 70
     1
 40
0
 41
0
  0
VERTEX
  8
0
 10
0.196832
 20
35.2476
 30
0.0
 40
0
 41
0
  0
VERTEX
  8
0
 10
4.37007
 20
35.2476
 30
0.0
 40
0
 41
0
  0
VERTEX
  8
0
 10
4.37007
 20
27.1374
 30
0.0
 40
0
 41
0
  0
VERTEX
  8
0
 10
0.196832
 20
27.1374
 30
0.0
 40
0
 41
0
  0
VERTEX
  8
0
 10
0.196832
 20
35.2476
 30
0.0
 40
0
 41
0
  0
SEQEND
 8
0
  0
POLYLINE
  8
0
 62
     7
 66
     1
 10
0
 20
0
 30
0.0
 70
     1
 40
0
 41
0
  0
VERTEX
  8
0
 10
0.196832
 20
35.2476
 30
0.0
 40
0
 41
0
  0
VERTEX
  8
0
 10
0.511828
 20
35.2476
 30
0.0
 40
0
 41
0
  0
VERTEX
  8
0
 10
0.511828
 20
35.1294
 30
0.0
 40
0
 41
0
  0
VERTEX
  8
0
 10
0.196832
 20
35.1294
 30
0.0
 40
0
 41
0
  0
VERTEX
  8
0
 10
0.196832
 20
35.2476
 30
0.0
 40
0
 41
0
  0
SEQEND
 8
0
  0
POLYLINE
  8
0
 62
     7
 66
     1
 10
0
 20
0
 30
0.0
 70
     1
 40
0
 41
0
  0
VERTEX
  8
0
 10
4.05512
 20
35.2476
 30
0.0
 40
0
 41
0
  0
VERTEX
  8
0
 10
4.37007
 20
35.2476
 30
0.0
 40
0
 41
0
  0
VERTEX
  8
0
 10
4.37007
 20
35.1294
 30
0.0
 40
0
 41
0
  0
VERTEX
  8
0
 10
4.05512
 20
35.1294
 30
0.0
 40
0
 41
0
  0
VERTEX
  8
0
 10
4.05512
 20
35.2476
 30
0.0
 40
0
 41
0
  0
SEQEND
 8
0
  0
POLYLINE
  8
0
 62
     7
 66
     1
 10
0
 20
0
 30
0.0
 70
     1
 40
0
 41
0
  0
VERTEX
  8
0
 10
4.25196
 20
35.1294
 30
0.0
 40
0
 41
0
  0
VERTEX
  8
0
 10
4.37007
 20
35.1294
 30
0.0
 40
0
 41
0
  0
VERTEX
  8
0
 10
4.37007
 20
33.5547
 30
0.0
 40
0
 41
0
  0
VERTEX
  8
0
 10
4.25196
 20
33.5547
 30
0.0
 40
0
 41
0
  0
VERTEX
  8
0
 10
4.25196
 20
35.1294
 30
0.0
 40
0
 41
0
  0
SEQEND
 8
0
  0
POLYLINE
  8
0
 62
     7
 66
     1
 10
0
 20
0
 30
0.0
 70
     1
 40
0
 41
0
  0
VERTEX
  8
0
 10
0.196832
 20
35.1294
 30
0.0
 40
0
 41
0
  0
VERTEX
  8
0
 10
0.314942
 20
35.1294
 30
0.0
 40
0
 41
0
  0
VERTEX
  8
0
 10
0.314942
 20
33.5547
 30
0.0
 40
0
 41
0
  0
VERTEX
  8
0
 10
0.196832
 20
33.5547
 30
0.0
 40
0
 41
0
  0
VERTEX
  8
0
 10
0.196832
 20
35.1294
 30
0.0
 40
0
 41
0
  0
SEQEND
 8
0
  0
POLYLINE
  8
0
 62
     7
 66
     1
 10
0
 20
0
 30
0.0
 70
     1
 40
0
 41
0
  0
VERTEX
  8
0
 10
4.25196
 20
31.9799
 30
0.0
 40
0
 41
0
  0
VERTEX
  8
0
 10
4.37007
 20
31.9799
 30
0.0
 40
0
 41
0
  0
VERTEX
  8
0
 10
4.37007
 20
30.405
 30
0.0
 40
0
 41
0
  0
VERTEX
  8
0
 10
4.25196
 20
30.405
 30
0.0
 40
0
 41
0
  0
VERTEX
  8
0
 10
4.25196
 20
31.9799
 30
0.0
 40
0
 41
0
  0
SEQEND
 8
0
  0
POLYLINE
  8
0
 62
     7
 66
     1
 10
0
 20
0
 30
0.0
 70
     1
 40
0
 41
0
  0
VERTEX
  8
0
 10
4.25196
 20
28.8303
 30
0.0
 40
0
 41
0
  0
VERTEX
  8
0
 10
4.37007
 20
28.8303
 30
0.0
 40
0
 41
0
  0
VERTEX
  8
0
 10
4.37007
 20
27.2554
 30
0.0
 40
0
 41
0
  0
VERTEX
  8
0
 10
4.25196
 20
27.2554
 30
0.0
 40
0
 41
0
  0
VERTEX
  8
0
 10
4.25196
 20
28.8303
 30
0.0
 40
0
 41
0
  0
SEQEND
 8
0
  0
POLYLINE
  8
0
 62
     7
 66
     1
 10
0
 20
0
 30
0.0
 70
     1
 40
0
 41
0
  0
VERTEX
  8
0
 10
0.196832
 20
31.9799
 30
0.0
 40
0
 41
0
  0
VERTEX
  8
0
 10
0.314942
 20
31.9799
 30
0.0
 40
0
 41
0
  0
VERTEX
  8
0
 10
0.314942
 20
30.4839
 30
0.0
 40
0
 41
0
  0
VERTEX
  8
0
 10
0.196832
 20
30.4839
 30
0.0
 40
0
 41
0
  0
VERTEX
  8
0
 10
0.196832
 20
31.9799
 30
0.0
 40
0
 41
0
  0
SEQEND
 8
0
  0
POLYLINE
  8
0
 62
     7
 66
     1
 10
0
 20
0
 30
0.0
 70
     1
 40
0
 41
0
  0
VERTEX
  8
0
 10
0.196832
 20
28.8303
 30
0.0
 40
0
 41
0
  0
VERTEX
  8
0
 10
0.314942
 20
28.8303
 30
0.0
 40
0
 41
0
  0
VERTEX
  8
0
 10
0.314942
 20
27.2554
 30
0.0
 40
0
 41
0
  0
VERTEX
  8
0
 10
0.196832
 20
27.2554
 30
0.0
 40
0
 41
0
  0
VERTEX
  8
0
 10
0.196832
 20
28.8303
 30
0.0
 40
0
 41
0
  0
SEQEND
 8
0
  0
POLYLINE
  8
0
 62
     7
 66
     1
 10
0
 20
0
 30
0.0
 70
     1
 40
0
 41
0
  0
VERTEX
  8
0
 10
1.22049
 20
35.2476
 30
0.0
 40
0
 41
0
  0
VERTEX
  8
0
 10
1.92914
 20
35.2476
 30
0.0
 40
0
 41
0
  0
VERTEX
  8
0
 10
1.92914
 20
35.1294
 30
0.0
 40
0
 41
0
  0
VERTEX
  8
0
 10
1.22049
 20
35.1294
 30
0.0
 40
0
 41
0
  0
VERTEX
  8
0
 10
1.22049
 20
35.2476
 30
0.0
 40
0
 41
0
  0
SEQEND
 8
0
  0
POLYLINE
  8
0
 62
     7
 66
     1
 10
0
 20
0
 30
0.0
 70
     1
 40
0
 41
0
  0
VERTEX
  8
0
 10
2.63781
 20
35.2476
 30
0.0
 40
0
 41
0
  0
VERTEX
  8
0
 10
3.34646
 20
35.2476
 30
0.0
 40
0
 41
0
  0
VERTEX
  8
0
 10
3.34646
 20
35.1294
 30
0.0
 40
0
 41
0
  0
VERTEX
  8
0
 10
2.63781
 20
35.1294
 30
0.0
 40
0
 41
0
  0
VERTEX
  8
0
 10
2.63781
 20
35.2476
 30
0.0
 40
0
 41
0
  0
SEQEND
 8
0
  0
POLYLINE
  8
0
 62
     7
 66
     1
 10
0
 20
0
 30
0.0
 70
     1
 40
0
 41
0
  0
VERTEX
  8
0
 10
0.196832
 20
27.2554
 30
0.0
 40
0
 41
0
  0
VERTEX
  8
0
 10
0.511828
 20
27.2554
 30
0.0
 40
0
 41
0
  0
VERTEX
  8
0
 10
0.511828
 20
27.1374
 30
0.0
 40
0
 41
0
  0
VERTEX
  8
0
 10
0.196832
 20
27.1374
 30
0.0
 40
0
 41
0
  0
VERTEX
  8
0
 10
0.196832
 20
27.2554
 30
0.0
 40
0
 41
0
  0
SEQEND
 8
0
  0
POLYLINE
  8
0
 62
     7
 66
     1
 10
0
 20
0
 30
0.0
 70
     1
 40
0
 41
0
  0
VERTEX
  8
0
 10
4.05512
 20
27.2554
 30
0.0
 40
0
 41
0
  0
VERTEX
  8
0
 10
4.37007
 20
27.2554
 30
0.0
 40
0
 41
0
  0
VERTEX
  8
0
 10
4.37007
 20
27.1374
 30
0.0
 40
0
 41
0
  0
VERTEX
  8
0
 10
4.05512
 20
27.1374
 30
0.0
 40
0
 41
0
  0
VERTEX
  8
0
 10
4.05512
 20
27.2554
 30
0.0
 40
0
 41
0
  0
SEQEND
 8
0
  0
POLYLINE
  8
0
 62
     7
 66
     1
 10
0
 20
0
 30
0.0
 70
     1
 40
0
 41
0
  0
VERTEX
  8
0
 10
1.22049
 20
27.2554
 30
0.0
 40
0
 41
0
  0
VERTEX
  8
0
 10
1.92914
 20
27.2554
 30
0.0
 40
0
 41
0
  0
VERTEX
  8
0
 10
1.92914
 20
27.1374
 30
0.0
 40
0
 41
0
  0
VERTEX
  8
0
 10
1.22049
 20
27.1374
 30
0.0
 40
0
 41
0
  0
VERTEX
  8
0
 10
1.22049
 20
27.2554
 30
0.0
 40
0
 41
0
  0
SEQEND
 8
0
  0
POLYLINE
  8
0
 62
     7
 66
     1
 10
0
 20
0
 30
0.0
 70
     1
 40
0
 41
0
  0
VERTEX
  8
0
 10
2.63781
 20
27.2554
 30
0.0
 40
0
 41
0
  0
VERTEX
  8
0
 10
3.34646
 20
27.2554
 30
0.0
 40
0
 41
0
  0
VERTEX
  8
0
 10
3.34646
 20
27.1374
 30
0.0
 40
0
 41
0
  0
VERTEX
  8
0
 10
2.63781
 20
27.1374
 30
0.0
 40
0
 41
0
  0
VERTEX
  8
0
 10
2.63781
 20
27.2554
 30
0.0
 40
0
 41
0
  0
SEQEND
 8
0
  0
POLYLINE
  8
0
 62
     0
 66
     1
 10
0
 20
0
 30
0.0
 70
     1
 40
0
 41
0
  0
VERTEX
  8
0
 10
4.56694
 20
35.2476
 30
0.0
 40
0
 41
0
  0
VERTEX
  8
0
 10
8.74018
 20
35.2476
 30
0.0
 40
0
 41
0
  0
VERTEX
  8
0
 10
8.74018
 20
27.1374
 30
0.0
 40
0
 41
0
  0
VERTEX
  8
0
 10
4.56694
 20
27.1374
 30
0.0
 40
0
 41
0
  0
VERTEX
  8
0
 10
4.56694
 20
35.2476
 30
0.0
 40
0
 41
0
  0
SEQEND
 8
0
  0
POLYLINE
  8
0
 62
     7
 66
     1
 10
0
 20
0
 30
0.0
 70
     1
 40
0
 41
0
  0
VERTEX
  8
0
 10
4.56694
 20
35.2476
 30
0.0
 40
0
 41
0
  0
VERTEX
  8
0
 10
4.88189
 20
35.2476
 30
0.0
 40
0
 41
0
  0
VERTEX
  8
0
 10
4.88189
 20
35.1294
 30
0.0
 40
0
 41
0
  0
VERTEX
  8
0
 10
4.56694
 20
35.1294
 30
0.0
 40
0
 41
0
  0
VERTEX
  8
0
 10
4.56694
 20
35.2476
 30
0.0
 40
0
 41
0
  0
SEQEND
 8
0
  0
POLYLINE
  8
0
 62
     7
 66
     1
 10
0
 20
0
 30
0.0
 70
     1
 40
0
 41
0
  0
VERTEX
  8
0
 10
8.42518
 20
35.2476
 30
0.0
 40
0
 41
0
  0
VERTEX
  8
0
 10
8.74018
 20
35.2476
 30
0.0
 40
0
 41
0
  0
VERTEX
  8
0
 10
8.74018
 20
35.1294
 30
0.0
 40
0
 41
0
  0
VERTEX
  8
0
 10
8.42518
 20
35.1294
 30
0.0
 40
0
 41
0
  0
VERTEX
  8
0
 10
8.42518
 20
35.2476
 30
0.0
 40
0
 41
0
  0
SEQEND
 8
0
  0
POLYLINE
  8
0
 62
     7
 66
     1
 10
0
 20
0
 30
0.0
 70
     1
 40
0
 41
0
  0
VERTEX
  8
0
 10
8.62207
 20
35.1294
 30
0.0
 40
0
 41
0
  0
VERTEX
  8
0
 10
8.74018
 20
35.1294
 30
0.0
 40
0
 41
0
  0
VERTEX
  8
0
 10
8.74018
 20
33.5547
 30
0.0
 40
0
 41
0
  0
VERTEX
  8
0
 10
8.62207
 20
33.5547
 30
0.0
 40
0
 41
0
  0
VERTEX
  8
0
 10
8.62207
 20
35.1294
 30
0.0
 40
0
 41
0
  0
SEQEND
 8
0
  0
POLYLINE
  8
0
 62
     7
 66
     1
 10
0
 20
0
 30
0.0
 70
     1
 40
0
 41
0
  0
VERTEX
  8
0
 10
4.56694
 20
35.1294
 30
0.0
 40
0
 41
0
  0
VERTEX
  8
0
 10
4.68506
 20
35.1294
 30
0.0
 40
0
 41
0
  0
VERTEX
  8
0
 10
4.68506
 20
33.5547
 30
0.0
 40
0
 41
0
  0
VERTEX
  8
0
 10
4.56694
 20
33.5547
 30
0.0
 40
0
 41
0
  0
VERTEX
  8
0
 10
4.56694
 20
35.1294
 30
0.0
 40
0
 41
0
  0
SEQEND
 8
0
  0
POLYLINE
  8
0
 62
     7
 66
     1
 10
0
 20
0
 30
0.0
 70
     1
 40
0
 41
0
  0
VERTEX
  8
0
 10
8.62207
 20
31.9799
 30
0.0
 40
0
 41
0
  0
VERTEX
  8
0
 10
8.74018
 20
31.9799
 30
0.0
 40
0
 41
0
  0
VERTEX
  8
0
 10
8.74018
 20
30.4839
 30
0.0
 40
0
 41
0
  0
VERTEX
  8
0
 10
8.62207
 20
30.4839
 30
0.0
 40
0
 41
0
  0
VERTEX
  8
0
 10
8.62207
 20
31.9799
 30
0.0
 40
0
 41
0
  0
SEQEND
 8
0
  0
POLYLINE
  8
0
 62
     7
 66
     1
 10
0
 20
0
 30
0.0
 70
     1
 40
0
 41
0
  0
VERTEX
  8
0
 10
8.62207
 20
28.8303
 30
0.0
 40
0
 41
0
  0
VERTEX
  8
0
 10
8.74018
 20
28.8303
 30
0.0
 40
0
 41
0
  0
VERTEX
  8
0
 10
8.74018
 20
27.2554
 30
0.0
 40
0
 41
0
  0
VERTEX
  8
0
 10
8.62207
 20
27.2554
 30
0.0
 40
0
 41
0
  0
VERTEX
  8
0
 10
8.62207
 20
28.8303
 30
0.0
 40
0
 41
0
  0
SEQEND
 8
0
  0
POLYLINE
  8
0
 62
     7
 66
     1
 10
0
 20
0
 30
0.0
 70
     1
 40
0
 41
0
  0
VERTEX
  8
0
 10
4.56694
 20
31.9799
 30
0.0
 40
0
 41
0
  0
VERTEX
  8
0
 10
4.68506
 20
31.9799
 30
0.0
 40
0
 41
0
  0
VERTEX
  8
0
 10
4.68506
 20
30.405
 30
0.0
 40
0
 41
0
  0
VERTEX
  8
0
 10
4.56694
 20
30.405
 30
0.0
 40
0
 41
0
  0
VERTEX
  8
0
 10
4.56694
 20
31.9799
 30
0.0
 40
0
 41
0
  0
SEQEND
 8
0
  0
POLYLINE
  8
0
 62
     7
 66
     1
 10
0
 20
0
 30
0.0
 70
     1
 40
0
 41
0
  0
VERTEX
  8
0
 10
4.56694
 20
28.8303
 30
0.0
 40
0
 41
0
  0
VERTEX
  8
0
 10
4.68506
 20
28.8303
 30
0.0
 40
0
 41
0
  0
VERTEX
  8
0
 10
4.68506
 20
27.2554
 30
0.0
 40
0
 41
0
  0
VERTEX
  8
0
 10
4.56694
 20
27.2554
 30
0.0
 40
0
 41
0
  0
VERTEX
  8
0
 10
4.56694
 20
28.8303
 30
0.0
 40
0
 41
0
  0
SEQEND
 8
0
  0
POLYLINE
  8
0
 62
     7
 66
     1
 10
0
 20
0
 30
0.0
 70
     1
 40
0
 41
0
  0
VERTEX
  8
0
 10
5.59056
 20
35.2476
 30
0.0
 40
0
 41
0
  0
VERTEX
  8
0
 10
6.29921
 20
35.2476
 30
0.0
 40
0
 41
0
  0
VERTEX
  8
0
 10
6.29921
 20
35.1294
 30
0.0
 40
0
 41
0
  0
VERTEX
  8
0
 10
5.59056
 20
35.1294
 30
0.0
 40
0
 41
0
  0
VERTEX
  8
0
 10
5.59056
 20
35.2476
 30
0.0
 40
0
 41
0
  0
SEQEND
 8
0
  0
POLYLINE
  8
0
 62
     7
 66
     1
 10
0
 20
0
 30
0.0
 70
     1
 40
0
 41
0
  0
VERTEX
  8
0
 10
7.00786
 20
35.2476
 30
0.0
 40
0
 41
0
  0
VERTEX
  8
0
 10
7.71653
 20
35.2476
 30
0.0
 40
0
 41
0
  0
VERTEX
  8
0
 10
7.71653
 20
35.1294
 30
0.0
 40
0
 41
0
  0
VERTEX
  8
0
 10
7.00786
 20
35.1294
 30
0.0
 40
0
 41
0
  0
VERTEX
  8
0
 10
7.00786
 20
35.2476
 30
0.0
 40
0
 41
0
  0
SEQEND
 8
0
  0
POLYLINE
  8
0
 62
     7
 66
     1
 10
0
 20
0
 30
0.0
 70
     1
 40
0
 41
0
  0
VERTEX
  8
0
 10
4.56694
 20
27.2554
 30
0.0
 40
0
 41
0
  0
VERTEX
  8
0
 10
4.88189
 20
27.2554
 30
0.0
 40
0
 41
0
  0
VERTEX
  8
0
 10
4.88189
 20
27.1374
 30
0.0
 40
0
 41
0
  0
VERTEX
  8
0
 10
4.56694
 20
27.1374
 30
0.0
 40
0
 41
0
  0
VERTEX
  8
0
 10
4.56694
 20
27.2554
 30
0.0
 40
0
 41
0
  0
SEQEND
 8
0
  0
POLYLINE
  8
0
 62
     7
 66
     1
 10
0
 20
0
 30
0.0
 70
     1
 40
0
 41
0
  0
VERTEX
  8
0
 10
8.42518
 20
27.2554
 30
0.0
 40
0
 41
0
  0
VERTEX
  8
0
 10
8.74018
 20
27.2554
 30
0.0
 40
0
 41
0
  0
VERTEX
  8
0
 10
8.74018
 20
27.1374
 30
0.0
 40
0
 41
0
  0
VERTEX
  8
0
 10
8.42518
 20
27.1374
 30
0.0
 40
0
 41
0
  0
VERTEX
  8
0
 10
8.42518
 20
27.2554
 30
0.0
 40
0
 41
0
  0
SEQEND
 8
0
  0
POLYLINE
  8
0
 62
     7
 66
     1
 10
0
 20
0
 30
0.0
 70
     1
 40
0
 41
0
  0
VERTEX
  8
0
 10
5.59056
 20
27.2554
 30
0.0
 40
0
 41
0
  0
VERTEX
  8
0
 10
6.29921
 20
27.2554
 30
0.0
 40
0
 41
0
  0
VERTEX
  8
0
 10
6.29921
 20
27.1374
 30
0.0
 40
0
 41
0
  0
VERTEX
  8
0
 10
5.59056
 20
27.1374
 30
0.0
 40
0
 41
0
  0
VERTEX
  8
0
 10
5.59056
 20
27.2554
 30
0.0
 40
0
 41
0
  0
SEQEND
 8
0
  0
POLYLINE
  8
0
 62
     7
 66
     1
 10
0
 20
0
 30
0.0
 70
     1
 40
0
 41
0
  0
VERTEX
  8
0
 10
7.00786
 20
27.2554
 30
0.0
 40
0
 41
0
  0
VERTEX
  8
0
 10
7.71653
 20
27.2554
 30
0.0
 40
0
 41
0
  0
VERTEX
  8
0
 10
7.71653
 20
27.1374
 30
0.0
 40
0
 41
0
  0
VERTEX
  8
0
 10
7.00786
 20
27.1374
 30
0.0
 40
0
 41
0
  0
VERTEX
  8
0
 10
7.00786
 20
27.2554
 30
0.0
 40
0
 41
0
  0
SEQEND
 8
0
  0
POLYLINE
  8
0
 62
     0
 66
     1
 10
0
 20
0
 30
0.0
 70
     1
 40
0
 41
0
  0
VERTEX
  8
0
 10
16.6142
 20
22.5704
 30
0.0
 40
0
 41
0
  0
VERTEX
  8
0
 10
20.6693
 20
22.5704
 30
0.0
 40
0
 41
0
  0
VERTEX
  8
0
 10
20.6693
 20
17.6885
 30
0.0
 40
0
 41
0
  0
VERTEX
  8
0
 10
16.6142
 20
17.6885
 30
0.0
 40
0
 41
0
  0
VERTEX
  8
0
 10
16.6142
 20
22.5704
 30
0.0
 40
0
 41
0
  0
SEQEND
 8
0
  0
POLYLINE
  8
0
 62
     7
 66
     1
 10
0
 20
0
 30
0.0
 70
     1
 40
0
 41
0
  0
VERTEX
  8
0
 10
17.9135
 20
17.8067
 30
0.0
 40
0
 41
0
  0
VERTEX
  8
0
 10
18.3071
 20
17.8067
 30
0.0
 40
0
 41
0
  0
VERTEX
  8
0
 10
18.3071
 20
17.6885
 30
0.0
 40
0
 41
0
  0
VERTEX
  8
0
 10
17.9135
 20
17.6885
 30
0.0
 40
0
 41
0
  0
VERTEX
  8
0
 10
17.9135
 20
17.8067
 30
0.0
 40
0
 41
0
  0
SEQEND
 8
0
  0
POLYLINE
  8
0
 62
     7
 66
     1
 10
0
 20
0
 30
0.0
 70
     1
 40
0
 41
0
  0
VERTEX
  8
0
 10
17.126
 20
17.8067
 30
0.0
 40
0
 41
0
  0
VERTEX
  8
0
 10
17.5197
 20
17.8067
 30
0.0
 40
0
 41
0
  0
VERTEX
  8
0
 10
17.5197
 20
17.6885
 30
0.0
 40
0
 41
0
  0
VERTEX
  8
0
 10
17.126
 20
17.6885
 30
0.0
 40
0
 41
0
  0
VERTEX
  8
0
 10
17.126
 20
17.8067
 30
0.0
 40
0
 41
0
  0
SEQEND
 8
0
  0
POLYLINE
  8
0
 62
     7
 66
     1
 10
0
 20
0
 30
0.0
 70
     1
 40
0
 41
0
  0
VERTEX
  8
0
 10
16.6142
 20
17.8067
 30
0.0
 40
0
 41
0
  0
VERTEX
  8
0
 10
16.7322
 20
17.8067
 30
0.0
 40
0
 41
0
  0
VERTEX
  8
0
 10
16.7322
 20
17.6885
 30
0.0
 40
0
 41
0
  0
VERTEX
  8
0
 10
16.6142
 20
17.6885
 30
0.0
 40
0
 41
0
  0
VERTEX
  8
0
 10
16.6142
 20
17.8067
 30
0.0
 40
0
 41
0
  0
SEQEND
 8
0
  0
POLYLINE
  8
0
 62
     7
 66
     1
 10
0
 20
0
 30
0.0
 70
     1
 40
0
 41
0
  0
VERTEX
  8
0
 10
18.7008
 20
17.8067
 30
0.0
 40
0
 41
0
  0
VERTEX
  8
0
 10
19.0944
 20
17.8067
 30
0.0
 40
0
 41
0
  0
VERTEX
  8
0
 10
19.0944
 20
17.6885
 30
0.0
 40
0
 41
0
  0
VERTEX
  8
0
 10
18.7008
 20
17.6885
 30
0.0
 40
0
 41
0
  0
VERTEX
  8
0
 10
18.7008
 20
17.8067
 30
0.0
 40
0
 41
0
  0
SEQEND
 8
0
  0
POLYLINE
  8
0
 62
     7
 66
     1
 10
0
 20
0
 30
0.0
 70
     1
 40
0
 41
0
  0
VERTEX
  8
0
 10
19.4882
 20
17.8067
 30
0.0
 40
0
 41
0
  0
VERTEX
  8
0
 10
19.8819
 20
17.8067
 30
0.0
 40
0
 41
0
  0
VERTEX
  8
0
 10
19.8819
 20
17.6885
 30
0.0
 40
0
 41
0
  0
VERTEX
  8
0
 10
19.4882
 20
17.6885
 30
0.0
 40
0
 41
0
  0
VERTEX
  8
0
 10
19.4882
 20
17.8067
 30
0.0
 40
0
 41
0
  0
SEQEND
 8
0
  0
POLYLINE
  8
0
 62
     7
 66
     1
 10
0
 20
0
 30
0.0
 70
     1
 40
0
 41
0
  0
VERTEX
  8
0
 10
20.2756
 20
17.8067
 30
0.0
 40
0
 41
0
  0
VERTEX
  8
0
 10
20.6693
 20
17.8067
 30
0.0
 40
0
 41
0
  0
VERTEX
  8
0
 10
20.6693
 20
17.6885
 30
0.0
 40
0
 41
0
  0
VERTEX
  8
0
 10
20.2756
 20
17.6885
 30
0.0
 40
0
 41
0
  0
VERTEX
  8
0
 10
20.2756
 20
17.8067
 30
0.0
 40
0
 41
0
  0
SEQEND
 8
0
  0
POLYLINE
  8
0
 62
     7
 66
     1
 10
0
 20
0
 30
0.0
 70
     1
 40
0
 41
0
  0
VERTEX
  8
0
 10
20.5511
 20
18.161
 30
0.0
 40
0
 41
0
  0
VERTEX
  8
0
 10
20.6693
 20
18.161
 30
0.0
 40
0
 41
0
  0
VERTEX
  8
0
 10
20.6693
 20
17.8067
 30
0.0
 40
0
 41
0
  0
VERTEX
  8
0
 10
20.5511
 20
17.8067
 30
0.0
 40
0
 41
0
  0
VERTEX
  8
0
 10
20.5511
 20
18.161
 30
0.0
 40
0
 41
0
  0
SEQEND
 8
0
  0
POLYLINE
  8
0
 62
     7
 66
     1
 10
0
 20
0
 30
0.0
 70
     1
 40
0
 41
0
  0
VERTEX
  8
0
 10
20.5511
 20
22.4524
 30
0.0
 40
0
 41
0
  0
VERTEX
  8
0
 10
20.6693
 20
22.4524
 30
0.0
 40
0
 41
0
  0
VERTEX
  8
0
 10
20.6693
 20
22.0979
 30
0.0
 40
0
 41
0
  0
VERTEX
  8
0
 10
20.5511
 20
22.0979
 30
0.0
 40
0
 41
0
  0
VERTEX
  8
0
 10
20.5511
 20
22.4524
 30
0.0
 40
0
 41
0
  0
SEQEND
 8
0
  0
POLYLINE
  8
0
 62
     7
 66
     1
 10
0
 20
0
 30
0.0
 70
     1
 40
0
 41
0
  0
VERTEX
  8
0
 10
18.7008
 20
22.5704
 30
0.0
 40
0
 41
0
  0
VERTEX
  8
0
 10
19.0944
 20
22.5704
 30
0.0
 40
0
 41
0
  0
VERTEX
  8
0
 10
19.0944
 20
22.4524
 30
0.0
 40
0
 41
0
  0
VERTEX
  8
0
 10
18.7008
 20
22.4524
 30
0.0
 40
0
 41
0
  0
VERTEX
  8
0
 10
18.7008
 20
22.5704
 30
0.0
 40
0
 41
0
  0
SEQEND
 8
0
  0
POLYLINE
  8
0
 62
     7
 66
     1
 10
0
 20
0
 30
0.0
 70
     1
 40
0
 41
0
  0
VERTEX
  8
0
 10
19.4882
 20
22.5704
 30
0.0
 40
0
 41
0
  0
VERTEX
  8
0
 10
19.8819
 20
22.5704
 30
0.0
 40
0
 41
0
  0
VERTEX
  8
0
 10
19.8819
 20
22.4524
 30
0.0
 40
0
 41
0
  0
VERTEX
  8
0
 10
19.4882
 20
22.4524
 30
0.0
 40
0
 41
0
  0
VERTEX
  8
0
 10
19.4882
 20
22.5704
 30
0.0
 40
0
 41
0
  0
SEQEND
 8
0
  0
POLYLINE
  8
0
 62
     7
 66
     1
 10
0
 20
0
 30
0.0
 70
     1
 40
0
 41
0
  0
VERTEX
  8
0
 10
20.2756
 20
22.5704
 30
0.0
 40
0
 41
0
  0
VERTEX
  8
0
 10
20.6693
 20
22.5704
 30
0.0
 40
0
 41
0
  0
VERTEX
  8
0
 10
20.6693
 20
22.4524
 30
0.0
 40
0
 41
0
  0
VERTEX
  8
0
 10
20.2756
 20
22.4524
 30
0.0
 40
0
 41
0
  0
VERTEX
  8
0
 10
20.2756
 20
22.5704
 30
0.0
 40
0
 41
0
  0
SEQEND
 8
0
  0
POLYLINE
  8
0
 62
     7
 66
     1
 10
0
 20
0
 30
0.0
 70
     1
 40
0
 41
0
  0
VERTEX
  8
0
 10
20.5511
 20
19.7358
 30
0.0
 40
0
 41
0
  0
VERTEX
  8
0
 10
20.6693
 20
19.7358
 30
0.0
 40
0
 41
0
  0
VERTEX
  8
0
 10
20.6693
 20
18.9485
 30
0.0
 40
0
 41
0
  0
VERTEX
  8
0
 10
20.5511
 20
18.9485
 30
0.0
 40
0
 41
0
  0
VERTEX
  8
0
 10
20.5511
 20
19.7358
 30
0.0
 40
0
 41
0
  0
SEQEND
 8
0
  0
POLYLINE
  8
0
 62
     7
 66
     1
 10
0
 20
0
 30
0.0
 70
     1
 40
0
 41
0
  0
VERTEX
  8
0
 10
20.5511
 20
21.3106
 30
0.0
 40
0
 41
0
  0
VERTEX
  8
0
 10
20.6693
 20
21.3106
 30
0.0
 40
0
 41
0
  0
VERTEX
  8
0
 10
20.6693
 20
20.5232
 30
0.0
 40
0
 41
0
  0
VERTEX
  8
0
 10
20.5511
 20
20.5232
 30
0.0
 40
0
 41
0
  0
VERTEX
  8
0
 10
20.5511
 20
21.3106
 30
0.0
 40
0
 41
0
  0
SEQEND
 8
0
  0
POLYLINE
  8
0
 62
     7
 66
     1
 10
0
 20
0
 30
0.0
 70
     1
 40
0
 41
0
  0
VERTEX
  8
0
 10
16.6142
 20
22.5704
 30
0.0
 40
0
 41
0
  0
VERTEX
  8
0
 10
18.3071
 20
22.5704
 30
0.0
 40
0
 41
0
  0
VERTEX
  8
0
 10
18.3071
 20
21.5861
 30
0.0
 40
0
 41
0
  0
VERTEX
  8
0
 10
16.6142
 20
21.5861
 30
0.0
 40
0
 41
0
  0
VERTEX
  8
0
 10
16.6142
 20
22.5704
 30
0.0
 40
0
 41
0
  0
SEQEND
 8
0
  0
POLYLINE
  8
0
 62
     0
 66
     1
 10
0
 20
0
 30
0.0
 70
     1
 40
0
 41
0
  0
VERTEX
  8
0
 10
16.6142
 20
35.2476
 30
0.0
 40
0
 41
0
  0
VERTEX
  8
0
 10
24.0944
 20
35.2476
 30
0.0
 40
0
 41
0
  0
VERTEX
  8
0
 10
24.0944
 20
27.1374
 30
0.0
 40
0
 41
0
  0
VERTEX
  8
0
 10
16.6142
 20
27.1374
 30
0.0
 40
0
 41
0
  0
VERTEX
  8
0
 10
16.6142
 20
35.2476
 30
0.0
 40
0
 41
0
  0
SEQEND
 8
0
  0
POLYLINE
  8
0
 62
     7
 66
     1
 10
0
 20
0
 30
0.0
 70
     1
 40
0
 41
0
  0
VERTEX
  8
0
 10
16.6142
 20
33.5547
 30
0.0
 40
0
 41
0
  0
VERTEX
  8
0
 10
16.7322
 20
33.5547
 30
0.0
 40
0
 41
0
  0
VERTEX
  8
0
 10
16.7322
 20
31.9799
 30
0.0
 40
0
 41
0
  0
VERTEX
  8
0
 10
16.6142
 20
31.9799
 30
0.0
 40
0
 41
0
  0
VERTEX
  8
0
 10
16.6142
 20
33.5547
 30
0.0
 40
0
 41
0
  0
SEQEND
 8
0
  0
POLYLINE
  8
0
 62
     7
 66
     1
 10
0
 20
0
 30
0.0
 70
     1
 40
0
 41
0
  0
VERTEX
  8
0
 10
18.1882
 20
35.2476
 30
0.0
 40
0
 41
0
  0
VERTEX
  8
0
 10
19.6442
 20
35.2476
 30
0.0
 40
0
 41
0
  0
VERTEX
  8
0
 10
19.6442
 20
35.1294
 30
0.0
 40
0
 41
0
  0
VERTEX
  8
0
 10
18.1882
 20
35.1294
 30
0.0
 40
0
 41
0
  0
VERTEX
  8
0
 10
18.1882
 20
35.2476
 30
0.0
 40
0
 41
0
  0
SEQEND
 8
0
  0
POLYLINE
  8
0
 62
     7
 66
     1
 10
0
 20
0
 30
0.0
 70
     1
 40
0
 41
0
  0
VERTEX
  8
0
 10
21.1
 20
35.2476
 30
0.0
 40
0
 41
0
  0
VERTEX
  8
0
 10
22.556
 20
35.2476
 30
0.0
 40
0
 41
0
  0
VERTEX
  8
0
 10
22.556
 20
35.1294
 30
0.0
 40
0
 41
0
  0
VERTEX
  8
0
 10
21.1
 20
35.1294
 30
0.0
 40
0
 41
0
  0
VERTEX
  8
0
 10
21.1
 20
35.2476
 30
0.0
 40
0
 41
0
  0
SEQEND
 8
0
  0
POLYLINE
  8
0
 62
     7
 66
     1
 10
0
 20
0
 30
0.0
 70
     1
 40
0
 41
0
  0
VERTEX
  8
0
 10
18.1882
 20
27.2554
 30
0.0
 40
0
 41
0
  0
VERTEX
  8
0
 10
19.6442
 20
27.2554
 30
0.0
 40
0
 41
0
  0
VERTEX
  8
0
 10
19.6442
 20
27.1374
 30
0.0
 40
0
 41
0
  0
VERTEX
  8
0
 10
18.1882
 20
27.1374
 30
0.0
 40
0
 41
0
  0
VERTEX
  8
0
 10
18.1882
 20
27.2554
 30
0.0
 40
0
 41
0
  0
SEQEND
 8
0
  0
POLYLINE
  8
0
 62
     7
 66
     1
 10
0
 20
0
 30
0.0
 70
     1
 40
0
 41
0
  0
VERTEX
  8
0
 10
21.1
 20
27.2554
 30
0.0
 40
0
 41
0
  0
VERTEX
  8
0
 10
22.556
 20
27.2554
 30
0.0
 40
0
 41
0
  0
VERTEX
  8
0
 10
22.556
 20
27.1374
 30
0.0
 40
0
 41
0
  0
VERTEX
  8
0
 10
21.1
 20
27.1374
 30
0.0
 40
0
 41
0
  0
VERTEX
  8
0
 10
21.1
 20
27.2554
 30
0.0
 40
0
 41
0
  0
SEQEND
 8
0
  0
POLYLINE
  8
0
 62
     7
 66
     1
 10
0
 20
0
 30
0.0
 70
     1
 40
0
 41
0
  0
VERTEX
  8
0
 10
23.9764
 20
33.5547
 30
0.0
 40
0
 41
0
  0
VERTEX
  8
0
 10
24.0944
 20
33.5547
 30
0.0
 40
0
 41
0
  0
VERTEX
  8
0
 10
24.0944
 20
31.9799
 30
0.0
 40
0
 41
0
  0
VERTEX
  8
0
 10
23.9764
 20
31.9799
 30
0.0
 40
0
 41
0
  0
VERTEX
  8
0
 10
23.9764
 20
33.5547
 30
0.0
 40
0
 41
0
  0
SEQEND
 8
0
  0
POLYLINE
  8
0
 62
     7
 66
     1
 10
0
 20
0
 30
0.0
 70
     1
 40
0
 41
0
  0
VERTEX
  8
0
 10
23.9764
 20
30.405
 30
0.0
 40
0
 41
0
  0
VERTEX
  8
0
 10
24.0944
 20
30.405
 30
0.0
 40
0
 41
0
  0
VERTEX
  8
0
 10
24.0944
 20
28.8303
 30
0.0
 40
0
 41
0
  0
VERTEX
  8
0
 10
23.9764
 20
28.8303
 30
0.0
 40
0
 41
0
  0
VERTEX
  8
0
 10
23.9764
 20
30.405
 30
0.0
 40
0
 41
0
  0
SEQEND
 8
0
  0
POLYLINE
  8
0
 62
     7
 66
     1
 10
0
 20
0
 30
0.0
 70
     1
 40
0
 41
0
  0
VERTEX
  8
0
 10
16.6142
 20
30.405
 30
0.0
 40
0
 41
0
  0
VERTEX
  8
0
 10
16.7322
 20
30.405
 30
0.0
 40
0
 41
0
  0
VERTEX
  8
0
 10
16.7322
 20
28.8303
 30
0.0
 40
0
 41
0
  0
VERTEX
  8
0
 10
16.6142
 20
28.8303
 30
0.0
 40
0
 41
0
  0
VERTEX
  8
0
 10
16.6142
 20
30.405
 30
0.0
 40
0
 41
0
  0
SEQEND
 8
0
  0
POLYLINE
  8
0
 62
     0
 66
     1
 10
0
 20
0
 30
0.0
 70
     1
 40
0
 41
0
  0
VERTEX
  8
0
 10
8.93701
 20
26.9404
 30
0.0
 40
0
 41
0
  0
VERTEX
  8
0
 10
16.4174
 20
26.9404
 30
0.0
 40
0
 41
0
  0
VERTEX
  8
0
 10
16.4174
 20
22.7672
 30
0.0
 40
0
 41
0
  0
VERTEX
  8
0
 10
8.93701
 20
22.7672
 30
0.0
 40
0
 41
0
  0
VERTEX
  8
0
 10
8.93701
 20
26.9404
 30
0.0
 40
0
 41
0
  0
SEQEND
 8
0
  0
POLYLINE
  8
0
 62
     7
 66
     1
 10
0
 20
0
 30
0.0
 70
     1
 40
0
 41
0
  0
VERTEX
  8
0
 10
10.2362
 20
26.6256
 30
0.0
 40
0
 41
0
  0
VERTEX
  8
0
 10
10.3543
 20
26.6256
 30
0.0
 40
0
 41
0
  0
VERTEX
  8
0
 10
10.3543
 20
25.9169
 30
0.0
 40
0
 41
0
  0
VERTEX
  8
0
 10
10.2362
 20
25.9169
 30
0.0
 40
0
 41
0
  0
VERTEX
  8
0
 10
10.2362
 20
26.6256
 30
0.0
 40
0
 41
0
  0
SEQEND
 8
0
  0
POLYLINE
  8
0
 62
     7
 66
     1
 10
0
 20
0
 30
0.0
 70
     1
 40
0
 41
0
  0
VERTEX
  8
0
 10
10.2362
 20
25.2082
 30
0.0
 40
0
 41
0
  0
VERTEX
  8
0
 10
10.3543
 20
25.2082
 30
0.0
 40
0
 41
0
  0
VERTEX
  8
0
 10
10.3543
 20
24.4996
 30
0.0
 40
0
 41
0
  0
VERTEX
  8
0
 10
10.2362
 20
24.4996
 30
0.0
 40
0
 41
0
  0
VERTEX
  8
0
 10
10.2362
 20
25.2082
 30
0.0
 40
0
 41
0
  0
SEQEND
 8
0
  0
POLYLINE
  8
0
 62
     7
 66
     1
 10
0
 20
0
 30
0.0
 70
     1
 40
0
 41
0
  0
VERTEX
  8
0
 10
10.2362
 20
23.791
 30
0.0
 40
0
 41
0
  0
VERTEX
  8
0
 10
10.3543
 20
23.791
 30
0.0
 40
0
 41
0
  0
VERTEX
  8
0
 10
10.3543
 20
23.2004
 30
0.0
 40
0
 41
0
  0
VERTEX
  8
0
 10
10.2362
 20
23.2004
 30
0.0
 40
0
 41
0
  0
VERTEX
  8
0
 10
10.2362
 20
23.791
 30
0.0
 40
0
 41
0
  0
SEQEND
 8
0
  0
POLYLINE
  8
0
 62
     7
 66
     1
 10
0
 20
0
 30
0.0
 70
     1
 40
0
 41
0
  0
VERTEX
  8
0
 10
15
 20
26.6256
 30
0.0
 40
0
 41
0
  0
VERTEX
  8
0
 10
15.1181
 20
26.6256
 30
0.0
 40
0
 41
0
  0
VERTEX
  8
0
 10
15.1181
 20
25.9169
 30
0.0
 40
0
 41
0
  0
VERTEX
  8
0
 10
15
 20
25.9169
 30
0.0
 40
0
 41
0
  0
VERTEX
  8
0
 10
15
 20
26.6256
 30
0.0
 40
0
 41
0
  0
SEQEND
 8
0
  0
POLYLINE
  8
0
 62
     7
 66
     1
 10
0
 20
0
 30
0.0
 70
     1
 40
0
 41
0
  0
VERTEX
  8
0
 10
15
 20
25.2082
 30
0.0
 40
0
 41
0
  0
VERTEX
  8
0
 10
15.1181
 20
25.2082
 30
0.0
 40
0
 41
0
  0
VERTEX
  8
0
 10
15.1181
 20
24.4996
 30
0.0
 40
0
 41
0
  0
VERTEX
  8
0
 10
15
 20
24.4996
 30
0.0
 40
0
 41
0
  0
VERTEX
  8
0
 10
15
 20
25.2082
 30
0.0
 40
0
 41
0
  0
SEQEND
 8
0
  0
POLYLINE
  8
0
 62
     7
 66
     1
 10
0
 20
0
 30
0.0
 70
     1
 40
0
 41
0
  0
VERTEX
  8
0
 10
15
 20
23.791
 30
0.0
 40
0
 41
0
  0
VERTEX
  8
0
 10
15.1181
 20
23.791
 30
0.0
 40
0
 41
0
  0
VERTEX
  8
0
 10
15.1181
 20
23.2004
 30
0.0
 40
0
 41
0
  0
VERTEX
  8
0
 10
15
 20
23.2004
 30
0.0
 40
0
 41
0
  0
VERTEX
  8
0
 10
15
 20
23.791
 30
0.0
 40
0
 41
0
  0
SEQEND
 8
0
  0
POLYLINE
  8
0
 62
     7
 66
     1
 10
0
 20
0
 30
0.0
 70
     1
 40
0
 41
0
  0
VERTEX
  8
0
 10
16.2992
 20
26.6256
 30
0.0
 40
0
 41
0
  0
VERTEX
  8
0
 10
16.4174
 20
26.6256
 30
0.0
 40
0
 41
0
  0
VERTEX
  8
0
 10
16.4174
 20
25.9169
 30
0.0
 40
0
 41
0
  0
VERTEX
  8
0
 10
16.2992
 20
25.9169
 30
0.0
 40
0
 41
0
  0
VERTEX
  8
0
 10
16.2992
 20
26.6256
 30
0.0
 40
0
 41
0
  0
SEQEND
 8
0
  0
POLYLINE
  8
0
 62
     7
 66
     1
 10
0
 20
0
 30
0.0
 70
     1
 40
0
 41
0
  0
VERTEX
  8
0
 10
16.2992
 20
25.2082
 30
0.0
 40
0
 41
0
  0
VERTEX
  8
0
 10
16.4174
 20
25.2082
 30
0.0
 40
0
 41
0
  0
VERTEX
  8
0
 10
16.4174
 20
24.4996
 30
0.0
 40
0
 41
0
  0
VERTEX
  8
0
 10
16.2992
 20
24.4996
 30
0.0
 40
0
 41
0
  0
VERTEX
  8
0
 10
16.2992
 20
25.2082
 30
0.0
 40
0
 41
0
  0
SEQEND
 8
0
  0
POLYLINE
  8
0
 62
     7
 66
     1
 10
0
 20
0
 30
0.0
 70
     1
 40
0
 41
0
  0
VERTEX
  8
0
 10
16.2992
 20
23.791
 30
0.0
 40
0
 41
0
  0
VERTEX
  8
0
 10
16.4174
 20
23.791
 30
0.0
 40
0
 41
0
  0
VERTEX
  8
0
 10
16.4174
 20
23.0822
 30
0.0
 40
0
 41
0
  0
VERTEX
  8
0
 10
16.2992
 20
23.0822
 30
0.0
 40
0
 41
0
  0
VERTEX
  8
0
 10
16.2992
 20
23.791
 30
0.0
 40
0
 41
0
  0
SEQEND
 8
0
  0
POLYLINE
  8
0
 62
     7
 66
     1
 10
0
 20
0
 30
0.0
 70
     1
 40
0
 41
0
  0
VERTEX
  8
0
 10
8.93701
 20
26.6256
 30
0.0
 40
0
 41
0
  0
VERTEX
  8
0
 10
9.05512
 20
26.6256
 30
0.0
 40
0
 41
0
  0
VERTEX
  8
0
 10
9.05512
 20
25.9169
 30
0.0
 40
0
 41
0
  0
VERTEX
  8
0
 10
8.93701
 20
25.9169
 30
0.0
 40
0
 41
0
  0
VERTEX
  8
0
 10
8.93701
 20
26.6256
 30
0.0
 40
0
 41
0
  0
SEQEND
 8
0
  0
POLYLINE
  8
0
 62
     7
 66
     1
 10
0
 20
0
 30
0.0
 70
     1
 40
0
 41
0
  0
VERTEX
  8
0
 10
8.93701
 20
25.2082
 30
0.0
 40
0
 41
0
  0
VERTEX
  8
0
 10
9.05512
 20
25.2082
 30
0.0
 40
0
 41
0
  0
VERTEX
  8
0
 10
9.05512
 20
24.4996
 30
0.0
 40
0
 41
0
  0
VERTEX
  8
0
 10
8.93701
 20
24.4996
 30
0.0
 40
0
 41
0
  0
VERTEX
  8
0
 10
8.93701
 20
25.2082
 30
0.0
 40
0
 41
0
  0
SEQEND
 8
0
  0
POLYLINE
  8
0
 62
     7
 66
     1
 10
0
 20
0
 30
0.0
 70
     1
 40
0
 41
0
  0
VERTEX
  8
0
 10
8.93701
 20
23.791
 30
0.0
 40
0
 41
0
  0
VERTEX
  8
0
 10
9.05512
 20
23.791
 30
0.0
 40
0
 41
0
  0
VERTEX
  8
0
 10
9.05512
 20
23.0822
 30
0.0
 40
0
 41
0
  0
VERTEX
  8
0
 10
8.93701
 20
23.0822
 30
0.0
 40
0
 41
0
  0
VERTEX
  8
0
 10
8.93701
 20
23.791
 30
0.0
 40
0
 41
0
  0
SEQEND
 8
0
  0
POLYLINE
  8
0
 62
     7
 66
     1
 10
0
 20
0
 30
0.0
 70
     1
 40
0
 41
0
  0
VERTEX
  8
0
 10
8.93701
 20
22.8854
 30
0.0
 40
0
 41
0
  0
VERTEX
  8
0
 10
10.5118
 20
22.8854
 30
0.0
 40
0
 41
0
  0
VERTEX
  8
0
 10
10.5118
 20
22.7672
 30
0.0
 40
0
 41
0
  0
VERTEX
  8
0
 10
8.93701
 20
22.7672
 30
0.0
 40
0
 41
0
  0
VERTEX
  8
0
 10
8.93701
 20
22.8854
 30
0.0
 40
0
 41
0
  0
SEQEND
 8
0
  0
POLYLINE
  8
0
 62
     7
 66
     1
 10
0
 20
0
 30
0.0
 70
     1
 40
0
 41
0
  0
VERTEX
  8
0
 10
11.9685
 20
22.8854
 30
0.0
 40
0
 41
0
  0
VERTEX
  8
0
 10
13.4252
 20
22.8854
 30
0.0
 40
0
 41
0
  0
VERTEX
  8
0
 10
13.4252
 20
22.7672
 30
0.0
 40
0
 41
0
  0
VERTEX
  8
0
 10
11.9685
 20
22.7672
 30
0.0
 40
0
 41
0
  0
VERTEX
  8
0
 10
11.9685
 20
22.8854
 30
0.0
 40
0
 41
0
  0
SEQEND
 8
0
  0
POLYLINE
  8
0
 62
     7
 66
     1
 10
0
 20
0
 30
0.0
 70
     1
 40
0
 41
0
  0
VERTEX
  8
0
 10
14.8819
 20
22.8854
 30
0.0
 40
0
 41
0
  0
VERTEX
  8
0
 10
16.4174
 20
22.8854
 30
0.0
 40
0
 41
0
  0
VERTEX
  8
0
 10
16.4174
 20
22.7672
 30
0.0
 40
0
 41
0
  0
VERTEX
  8
0
 10
14.8819
 20
22.7672
 30
0.0
 40
0
 41
0
  0
VERTEX
  8
0
 10
14.8819
 20
22.8854
 30
0.0
 40
0
 41
0
  0
SEQEND
 8
0
  0
POLYLINE
  8
0
 62
     7
 66
     1
 10
0
 20
0
 30
0.0
 70
     1
 40
0
 41
0
  0
VERTEX
  8
0
 10
8.93701
 20
26.9404
 30
0.0
 40
0
 41
0
  0
VERTEX
  8
0
 10
10.5118
 20
26.9404
 30
0.0
 40
0
 41
0
  0
VERTEX
  8
0
 10
10.5118
 20
26.8224
 30
0.0
 40
0
 41
0
  0
VERTEX
  8
0
 10
8.93701
 20
26.8224
 30
0.0
 40
0
 41
0
  0
VERTEX
  8
0
 10
8.93701
 20
26.9404
 30
0.0
 40
0
 41
0
  0
SEQEND
 8
0
  0
POLYLINE
  8
0
 62
     7
 66
     1
 10
0
 20
0
 30
0.0
 70
     1
 40
0
 41
0
  0
VERTEX
  8
0
 10
11.9685
 20
26.9404
 30
0.0
 40
0
 41
0
  0
VERTEX
  8
0
 10
13.4252
 20
26.9404
 30
0.0
 40
0
 41
0
  0
VERTEX
  8
0
 10
13.4252
 20
26.8224
 30
0.0
 40
0
 41
0
  0
VERTEX
  8
0
 10
11.9685
 20
26.8224
 30
0.0
 40
0
 41
0
  0
VERTEX
  8
0
 10
11.9685
 20
26.9404
 30
0.0
 40
0
 41
0
  0
SEQEND
 8
0
  0
POLYLINE
  8
0
 62
     7
 66
     1
 10
0
 20
0
 30
0.0
 70
     1
 40
0
 41
0
  0
VERTEX
  8
0
 10
14.8819
 20
26.9404
 30
0.0
 40
0
 41
0
  0
VERTEX
  8
0
 10
16.4174
 20
26.9404
 30
0.0
 40
0
 41
0
  0
VERTEX
  8
0
 10
16.4174
 20
26.8224
 30
0.0
 40
0
 41
0
  0
VERTEX
  8
0
 10
14.8819
 20
26.8224
 30
0.0
 40
0
 41
0
  0
VERTEX
  8
0
 10
14.8819
 20
26.9404
 30
0.0
 40
0
 41
0
  0
SEQEND
 8
0
  0
POLYLINE
  8
0
 62
     0
 66
     1
 10
0
 20
0
 30
0.0
 70
     1
 40
0
 41
0
  0
VERTEX
  8
0
 10
16.6142
 20
26.9404
 30
0.0
 40
0
 41
0
  0
VERTEX
  8
0
 10
24.0944
 20
26.9404
 30
0.0
 40
0
 41
0
  0
VERTEX
  8
0
 10
24.0944
 20
22.7672
 30
0.0
 40
0
 41
0
  0
VERTEX
  8
0
 10
16.6142
 20
22.7672
 30
0.0
 40
0
 41
0
  0
VERTEX
  8
0
 10
16.6142
 20
26.9404
 30
0.0
 40
0
 41
0
  0
SEQEND
 8
0
  0
POLYLINE
  8
0
 62
     7
 66
     1
 10
0
 20
0
 30
0.0
 70
     1
 40
0
 41
0
  0
VERTEX
  8
0
 10
23.9764
 20
26.6256
 30
0.0
 40
0
 41
0
  0
VERTEX
  8
0
 10
24.0944
 20
26.6256
 30
0.0
 40
0
 41
0
  0
VERTEX
  8
0
 10
24.0944
 20
25.9169
 30
0.0
 40
0
 41
0
  0
VERTEX
  8
0
 10
23.9764
 20
25.9169
 30
0.0
 40
0
 41
0
  0
VERTEX
  8
0
 10
23.9764
 20
26.6256
 30
0.0
 40
0
 41
0
  0
SEQEND
 8
0
  0
POLYLINE
  8
0
 62
     7
 66
     1
 10
0
 20
0
 30
0.0
 70
     1
 40
0
 41
0
  0
VERTEX
  8
0
 10
23.9764
 20
25.2082
 30
0.0
 40
0
 41
0
  0
VERTEX
  8
0
 10
24.0944
 20
25.2082
 30
0.0
 40
0
 41
0
  0
VERTEX
  8
0
 10
24.0944
 20
24.4996
 30
0.0
 40
0
 41
0
  0
VERTEX
  8
0
 10
23.9764
 20
24.4996
 30
0.0
 40
0
 41
0
  0
VERTEX
  8
0
 10
23.9764
 20
25.2082
 30
0.0
 40
0
 41
0
  0
SEQEND
 8
0
  0
POLYLINE
  8
0
 62
     7
 66
     1
 10
0
 20
0
 30
0.0
 70
     1
 40
0
 41
0
  0
VERTEX
  8
0
 10
23.9764
 20
23.791
 30
0.0
 40
0
 41
0
  0
VERTEX
  8
0
 10
24.0944
 20
23.791
 30
0.0
 40
0
 41
0
  0
VERTEX
  8
0
 10
24.0944
 20
23.0822
 30
0.0
 40
0
 41
0
  0
VERTEX
  8
0
 10
23.9764
 20
23.0822
 30
0.0
 40
0
 41
0
  0
VERTEX
  8
0
 10
23.9764
 20
23.791
 30
0.0
 40
0
 41
0
  0
SEQEND
 8
0
  0
POLYLINE
  8
0
 62
     7
 66
     1
 10
0
 20
0
 30
0.0
 70
     1
 40
0
 41
0
  0
VERTEX
  8
0
 10
16.6142
 20
26.6256
 30
0.0
 40
0
 41
0
  0
VERTEX
  8
0
 10
16.7322
 20
26.6256
 30
0.0
 40
0
 41
0
  0
VERTEX
  8
0
 10
16.7322
 20
25.9169
 30
0.0
 40
0
 41
0
  0
VERTEX
  8
0
 10
16.6142
 20
25.9169
 30
0.0
 40
0
 41
0
  0
VERTEX
  8
0
 10
16.6142
 20
26.6256
 30
0.0
 40
0
 41
0
  0
SEQEND
 8
0
  0
POLYLINE
  8
0
 62
     7
 66
     1
 10
0
 20
0
 30
0.0
 70
     1
 40
0
 41
0
  0
VERTEX
  8
0
 10
16.6142
 20
25.2082
 30
0.0
 40
0
 41
0
  0
VERTEX
  8
0
 10
16.7322
 20
25.2082
 30
0.0
 40
0
 41
0
  0
VERTEX
  8
0
 10
16.7322
 20
24.4996
 30
0.0
 40
0
 41
0
  0
VERTEX
  8
0
 10
16.6142
 20
24.4996
 30
0.0
 40
0
 41
0
  0
VERTEX
  8
0
 10
16.6142
 20
25.2082
 30
0.0
 40
0
 41
0
  0
SEQEND
 8
0
  0
POLYLINE
  8
0
 62
     7
 66
     1
 10
0
 20
0
 30
0.0
 70
     1
 40
0
 41
0
  0
VERTEX
  8
0
 10
16.6142
 20
23.791
 30
0.0
 40
0
 41
0
  0
VERTEX
  8
0
 10
16.7322
 20
23.791
 30
0.0
 40
0
 41
0
  0
VERTEX
  8
0
 10
16.7322
 20
23.0822
 30
0.0
 40
0
 41
0
  0
VERTEX
  8
0
 10
16.6142
 20
23.0822
 30
0.0
 40
0
 41
0
  0
VERTEX
  8
0
 10
16.6142
 20
23.791
 30
0.0
 40
0
 41
0
  0
SEQEND
 8
0
  0
POLYLINE
  8
0
 62
     7
 66
     1
 10
0
 20
0
 30
0.0
 70
     1
 40
0
 41
0
  0
VERTEX
  8
0
 10
16.6142
 20
22.8854
 30
0.0
 40
0
 41
0
  0
VERTEX
  8
0
 10
18.189
 20
22.8854
 30
0.0
 40
0
 41
0
  0
VERTEX
  8
0
 10
18.189
 20
22.7672
 30
0.0
 40
0
 41
0
  0
VERTEX
  8
0
 10
16.6142
 20
22.7672
 30
0.0
 40
0
 41
0
  0
VERTEX
  8
0
 10
16.6142
 20
22.8854
 30
0.0
 40
0
 41
0
  0
SEQEND
 8
0
  0
POLYLINE
  8
0
 62
     7
 66
     1
 10
0
 20
0
 30
0.0
 70
     1
 40
0
 41
0
  0
VERTEX
  8
0
 10
19.6457
 20
22.8854
 30
0.0
 40
0
 41
0
  0
VERTEX
  8
0
 10
21.1024
 20
22.8854
 30
0.0
 40
0
 41
0
  0
VERTEX
  8
0
 10
21.1024
 20
22.7672
 30
0.0
 40
0
 41
0
  0
VERTEX
  8
0
 10
19.6457
 20
22.7672
 30
0.0
 40
0
 41
0
  0
VERTEX
  8
0
 10
19.6457
 20
22.8854
 30
0.0
 40
0
 41
0
  0
SEQEND
 8
0
  0
POLYLINE
  8
0
 62
     7
 66
     1
 10
0
 20
0
 30
0.0
 70
     1
 40
0
 41
0
  0
VERTEX
  8
0
 10
22.559
 20
22.8854
 30
0.0
 40
0
 41
0
  0
VERTEX
  8
0
 10
24.0944
 20
22.8854
 30
0.0
 40
0
 41
0
  0
VERTEX
  8
0
 10
24.0944
 20
22.7672
 30
0.0
 40
0
 41
0
  0
VERTEX
  8
0
 10
22.559
 20
22.7672
 30
0.0
 40
0
 41
0
  0
VERTEX
  8
0
 10
22.559
 20
22.8854
 30
0.0
 40
0
 41
0
  0
SEQEND
 8
0
  0
POLYLINE
  8
0
 62
     7
 66
     1
 10
0
 20
0
 30
0.0
 70
     1
 40
0
 41
0
  0
VERTEX
  8
0
 10
16.6142
 20
26.9404
 30
0.0
 40
0
 41
0
  0
VERTEX
  8
0
 10
18.189
 20
26.9404
 30
0.0
 40
0
 41
0
  0
VERTEX
  8
0
 10
18.189
 20
26.8224
 30
0.0
 40
0
 41
0
  0
VERTEX
  8
0
 10
16.6142
 20
26.8224
 30
0.0
 40
0
 41
0
  0
VERTEX
  8
0
 10
16.6142
 20
26.9404
 30
0.0
 40
0
 41
0
  0
SEQEND
 8
0
  0
POLYLINE
  8
0
 62
     7
 66
     1
 10
0
 20
0
 30
0.0
 70
     1
 40
0
 41
0
  0
VERTEX
  8
0
 10
19.6457
 20
26.9404
 30
0.0
 40
0
 41
0
  0
VERTEX
  8
0
 10
21.1024
 20
26.9404
 30
0.0
 40
0
 41
0
  0
VERTEX
  8
0
 10
21.1024
 20
26.8224
 30
0.0
 40
0
 41
0
  0
VERTEX
  8
0
 10
19.6457
 20
26.8224
 30
0.0
 40
0
 41
0
  0
VERTEX
  8
0
 10
19.6457
 20
26.9404
 30
0.0
 40
0
 41
0
  0
SEQEND
 8
0
  0
POLYLINE
  8
0
 62
     7
 66
     1
 10
0
 20
0
 30
0.0
 70
     1
 40
0
 41
0
  0
VERTEX
  8
0
 10
22.559
 20
26.9404
 30
0.0
 40
0
 41
0
  0
VERTEX
  8
0
 10
24.0944
 20
26.9404
 30
0.0
 40
0
 41
0
  0
VERTEX
  8
0
 10
24.0944
 20
26.8224
 30
0.0
 40
0
 41
0
  0
VERTEX
  8
0
 10
22.559
 20
26.8224
 30
0.0
 40
0
 41
0
  0
VERTEX
  8
0
 10
22.559
 20
26.9404
 30
0.0
 40
0
 41
0
  0
SEQEND
 8
0
  0
POLYLINE
  8
0
 62
     7
 66
     1
 10
0
 20
0
 30
0.0
 70
     1
 40
0
 41
0
  0
VERTEX
  8
0
 10
18.1496
 20
26.5861
 30
0.0
 40
0
 41
0
  0
VERTEX
  8
0
 10
22.559
 20
26.5861
 30
0.0
 40
0
 41
0
  0
VERTEX
  8
0
 10
22.5821
 20
26.5861
 30
0.0
 40
0
 41
0
  0
VERTEX
  8
0
 10
22.6511
 20
26.5678
 30
0.0
 40
0
 41
0
  0
VERTEX
  8
0
 10
22.7263
 20
26.5171
 30
0.0
 40
0
 41
0
  0
VERTEX
  8
0
 10
22.7768
 20
26.4421
 30
0.0
 40
0
 41
0
  0
VERTEX
  8
0
 10
22.7953
 20
26.3731
 30
0.0
 40
0
 41
0
  0
VERTEX
  8
0
 10
22.7953
 20
26.35
 30
0.0
 40
0
 41
0
  0
VERTEX
  8
0
 10
22.7953
 20
24.8539
 30
0.0
 40
0
 41
0
  0
VERTEX
  8
0
 10
22.7953
 20
24.8308
 30
0.0
 40
0
 41
0
  0
VERTEX
  8
0
 10
22.7768
 20
24.7618
 30
0.0
 40
0
 41
0
  0
VERTEX
  8
0
 10
22.7263
 20
24.6868
 30
0.0
 40
0
 41
0
  0
VERTEX
  8
0
 10
22.6511
 20
24.6363
 30
0.0
 40
0
 41
0
  0
VERTEX
  8
0
 10
22.5821
 20
24.6176
 30
0.0
 40
0
 41
0
  0
VERTEX
  8
0
 10
22.559
 20
24.6176
 30
0.0
 40
0
 41
0
  0
VERTEX
  8
0
 10
18.1496
 20
24.6176
 30
0.0
 40
0
 41
0
  0
VERTEX
  8
0
 10
18.1265
 20
24.6176
 30
0.0
 40
0
 41
0
  0
VERTEX
  8
0
 10
18.0575
 20
24.6363
 30
0.0
 40
0
 41
0
  0
VERTEX
  8
0
 10
17.9824
 20
24.6868
 30
0.0
 40
0
 41
0
  0
VERTEX
  8
0
 10
17.9318
 20
24.7618
 30
0.0
 40
0
 41
0
  0
VERTEX
  8
0
 10
17.9135
 20
24.8308
 30
0.0
 40
0
 41
0
  0
VERTEX
  8
0
 10
17.9135
 20
24.8539
 30
0.0
 40
0
 41
0
  0
VERTEX
  8
0
 10
17.9135
 20
26.35
 30
0.0
 40
0
 41
0
  0
VERTEX
  8
0
 10
17.9135
 20
26.3731
 30
0.0
 40
0
 41
0
  0
VERTEX
  8
0
 10
17.9318
 20
26.4421
 30
0.0
 40
0
 41
0
  0
VERTEX
  8
0
 10
17.9824
 20
26.5171
 30
0.0
 40
0
 41
0
  0
VERTEX
  8
0
 10
18.0575
 20
26.5678
 30
0.0
 40
0
 41
0
  0
VERTEX
  8
0
 10
18.1265
 20
26.5861
 30
0.0
 40
0
 41
0
  0
VERTEX
  8
0
 10
18.1496
 20
26.5861
 30
0.0
 40
0
 41
0
  0
SEQEND
 8
0
  0
POLYLINE
  8
0
 62
     0
 66
     1
 10
0
 20
0
 30
0.0
 70
     1
 40
0
 41
0
  0
VERTEX
  8
0
 10
22.8346
 20
22.3342
 30
0.0
 40
0
 41
0
  0
VERTEX
  8
0
 10
22.8346
 20
17.9247
 30
0.0
 40
0
 41
0
  0
VERTEX
  8
0
 10
22.8346
 20
17.9018
 30
0.0
 40
0
 41
0
  0
VERTEX
  8
0
 10
22.8161
 20
17.8326
 30
0.0
 40
0
 41
0
  0
VERTEX
  8
0
 10
22.7656
 20
17.7576
 30
0.0
 40
0
 41
0
  0
VERTEX
  8
0
 10
22.6904
 20
17.7071
 30
0.0
 40
0
 41
0
  0
VERTEX
  8
0
 10
22.6214
 20
17.6885
 30
0.0
 40
0
 41
0
  0
VERTEX
  8
0
 10
22.5985
 20
17.6885
 30
0.0
 40
0
 41
0
  0
VERTEX
  8
0
 10
21.1024
 20
17.6885
 30
0.0
 40
0
 41
0
  0
VERTEX
  8
0
 10
21.0793
 20
17.6885
 30
0.0
 40
0
 41
0
  0
VERTEX
  8
0
 10
21.0103
 20
17.7071
 30
0.0
 40
0
 41
0
  0
VERTEX
  8
0
 10
20.9351
 20
17.7576
 30
0.0
 40
0
 41
0
  0
VERTEX
  8
0
 10
20.8847
 20
17.8326
 30
0.0
 40
0
 41
0
  0
VERTEX
  8
0
 10
20.8661
 20
17.9018
 30
0.0
 40
0
 41
0
  0
VERTEX
  8
0
 10
20.8661
 20
17.9247
 30
0.0
 40
0
 41
0
  0
VERTEX
  8
0
 10
20.8661
 20
22.3342
 30
0.0
 40
0
 41
0
  0
VERTEX
  8
0
 10
20.8661
 20
22.3572
 30
0.0
 40
0
 41
0
  0
VERTEX
  8
0
 10
20.8847
 20
22.4264
 30
0.0
 40
0
 41
0
  0
VERTEX
  8
0
 10
20.9351
 20
22.5014
 30
0.0
 40
0
 41
0
  0
VERTEX
  8
0
 10
21.0103
 20
22.5519
 30
0.0
 40
0
 41
0
  0
VERTEX
  8
0
 10
21.0793
 20
22.5704
 30
0.0
 40
0
 41
0
  0
VERTEX
  8
0
 10
21.1024
 20
22.5704
 30
0.0
 40
0
 41
0
  0
VERTEX
  8
0
 10
22.5985
 20
22.5704
 30
0.0
 40
0
 41
0
  0
VERTEX
  8
0
 10
22.6214
 20
22.5704
 30
0.0
 40
0
 41
0
  0
VERTEX
  8
0
 10
22.6904
 20
22.5519
 30
0.0
 40
0
 41
0
  0
VERTEX
  8
0
 10
22.7656
 20
22.5014
 30
0.0
 40
0
 41
0
  0
VERTEX
  8
0
 10
22.8161
 20
22.4264
 30
0.0
 40
0
 41
0
  0
VERTEX
  8
0
 10
22.8346
 20
22.3572
 30
0.0
 40
0
 41
0
  0
VERTEX
  8
0
 10
22.8346
 20
22.3342
 30
0.0
 40
0
 41
0
  0
SEQEND
 8
0
  0
POLYLINE
  8
0
 62
     0
 66
     1
 10
0
 20
0
 30
0.0
 70
     1
 40
0
 41
0
  0
VERTEX
  8
0
 10
8.93701
 20
35.2476
 30
0.0
 40
0
 41
0
  0
VERTEX
  8
0
 10
16.4174
 20
35.2476
 30
0.0
 40
0
 41
0
  0
VERTEX
  8
0
 10
16.4174
 20
27.1374
 30
0.0
 40
0
 41
0
  0
VERTEX
  8
0
 10
8.93701
 20
27.1374
 30
0.0
 40
0
 41
0
  0
VERTEX
  8
0
 10
8.93701
 20
35.2476
 30
0.0
 40
0
 41
0
  0
SEQEND
 8
0
  0
POLYLINE
  8
0
 62
     7
 66
     1
 10
0
 20
0
 30
0.0
 70
     1
 40
0
 41
0
  0
VERTEX
  8
0
 10
8.93701
 20
33.5547
 30
0.0
 40
0
 41
0
  0
VERTEX
  8
0
 10
9.05512
 20
33.5547
 30
0.0
 40
0
 41
0
  0
VERTEX
  8
0
 10
9.05512
 20
31.9799
 30
0.0
 40
0
 41
0
  0
VERTEX
  8
0
 10
8.93701
 20
31.9799
 30
0.0
 40
0
 41
0
  0
VERTEX
  8
0
 10
8.93701
 20
33.5547
 30
0.0
 40
0
 41
0
  0
SEQEND
 8
0
  0
POLYLINE
  8
0
 62
     7
 66
     1
 10
0
 20
0
 30
0.0
 70
     1
 40
0
 41
0
  0
VERTEX
  8
0
 10
10.5118
 20
35.2476
 30
0.0
 40
0
 41
0
  0
VERTEX
  8
0
 10
11.9685
 20
35.2476
 30
0.0
 40
0
 41
0
  0
VERTEX
  8
0
 10
11.9685
 20
35.1294
 30
0.0
 40
0
 41
0
  0
VERTEX
  8
0
 10
10.5118
 20
35.1294
 30
0.0
 40
0
 41
0
  0
VERTEX
  8
0
 10
10.5118
 20
35.2476
 30
0.0
 40
0
 41
0
  0
SEQEND
 8
0
  0
POLYLINE
  8
0
 62
     7
 66
     1
 10
0
 20
0
 30
0.0
 70
     1
 40
0
 41
0
  0
VERTEX
  8
0
 10
13.4252
 20
35.2476
 30
0.0
 40
0
 41
0
  0
VERTEX
  8
0
 10
14.8819
 20
35.2476
 30
0.0
 40
0
 41
0
  0
VERTEX
  8
0
 10
14.8819
 20
35.1294
 30
0.0
 40
0
 41
0
  0
VERTEX
  8
0
 10
13.4252
 20
35.1294
 30
0.0
 40
0
 41
0
  0
VERTEX
  8
0
 10
13.4252
 20
35.2476
 30
0.0
 40
0
 41
0
  0
SEQEND
 8
0
  0
POLYLINE
  8
0
 62
     7
 66
     1
 10
0
 20
0
 30
0.0
 70
     1
 40
0
 41
0
  0
VERTEX
  8
0
 10
10.5118
 20
27.2554
 30
0.0
 40
0
 41
0
  0
VERTEX
  8
0
 10
11.9685
 20
27.2554
 30
0.0
 40
0
 41
0
  0
VERTEX
  8
0
 10
11.9685
 20
27.1374
 30
0.0
 40
0
 41
0
  0
VERTEX
  8
0
 10
10.5118
 20
27.1374
 30
0.0
 40
0
 41
0
  0
VERTEX
  8
0
 10
10.5118
 20
27.2554
 30
0.0
 40
0
 41
0
  0
SEQEND
 8
0
  0
POLYLINE
  8
0
 62
     7
 66
     1
 10
0
 20
0
 30
0.0
 70
     1
 40
0
 41
0
  0
VERTEX
  8
0
 10
13.4252
 20
27.2554
 30
0.0
 40
0
 41
0
  0
VERTEX
  8
0
 10
14.8819
 20
27.2554
 30
0.0
 40
0
 41
0
  0
VERTEX
  8
0
 10
14.8819
 20
27.1374
 30
0.0
 40
0
 41
0
  0
VERTEX
  8
0
 10
13.4252
 20
27.1374
 30
0.0
 40
0
 41
0
  0
VERTEX
  8
0
 10
13.4252
 20
27.2554
 30
0.0
 40
0
 41
0
  0
SEQEND
 8
0
  0
POLYLINE
  8
0
 62
     7
 66
     1
 10
0
 20
0
 30
0.0
 70
     1
 40
0
 41
0
  0
VERTEX
  8
0
 10
16.2992
 20
33.5547
 30
0.0
 40
0
 41
0
  0
VERTEX
  8
0
 10
16.4174
 20
33.5547
 30
0.0
 40
0
 41
0
  0
VERTEX
  8
0
 10
16.4174
 20
31.9799
 30
0.0
 40
0
 41
0
  0
VERTEX
  8
0
 10
16.2992
 20
31.9799
 30
0.0
 40
0
 41
0
  0
VERTEX
  8
0
 10
16.2992
 20
33.5547
 30
0.0
 40
0
 41
0
  0
SEQEND
 8
0
  0
POLYLINE
  8
0
 62
     7
 66
     1
 10
0
 20
0
 30
0.0
 70
     1
 40
0
 41
0
  0
VERTEX
  8
0
 10
16.2992
 20
30.405
 30
0.0
 40
0
 41
0
  0
VERTEX
  8
0
 10
16.4174
 20
30.405
 30
0.0
 40
0
 41
0
  0
VERTEX
  8
0
 10
16.4174
 20
28.8303
 30
0.0
 40
0
 41
0
  0
VERTEX
  8
0
 10
16.2992
 20
28.8303
 30
0.0
 40
0
 41
0
  0
VERTEX
  8
0
 10
16.2992
 20
30.405
 30
0.0
 40
0
 41
0
  0
SEQEND
 8
0
  0
POLYLINE
  8
0
 62
     7
 66
     1
 10
0
 20
0
 30
0.0
 70
     1
 40
0
 41
0
  0
VERTEX
  8
0
 10
8.93701
 20
30.405
 30
0.0
 40
0
 41
0
  0
VERTEX
  8
0
 10
9.05512
 20
30.405
 30
0.0
 40
0
 41
0
  0
VERTEX
  8
0
 10
9.05512
 20
28.8303
 30
0.0
 40
0
 41
0
  0
VERTEX
  8
0
 10
8.93701
 20
28.8303
 30
0.0
 40
0
 41
0
  0
VERTEX
  8
0
 10
8.93701
 20
30.405
 30
0.0
 40
0
 41
0
  0
SEQEND
 8
0
  0
POLYLINE
  8
0
 62
     7
 66
     1
 10
0
 20
0
 30
0.0
 70
     1
 40
0
 41
0
  0
VERTEX
  8
0
 10
10.2362
 20
30.1689
 30
0.0
 40
0
 41
0
  0
VERTEX
  8
0
 10
10.3543
 20
30.1689
 30
0.0
 40
0
 41
0
  0
VERTEX
  8
0
 10
10.3543
 20
29.7751
 30
0.0
 40
0
 41
0
  0
VERTEX
  8
0
 10
10.2362
 20
29.7751
 30
0.0
 40
0
 41
0
  0
VERTEX
  8
0
 10
10.2362
 20
30.1689
 30
0.0
 40
0
 41
0
  0
SEQEND
 8
0
  0
POLYLINE
  8
0
 62
     7
 66
     1
 10
0
 20
0
 30
0.0
 70
     1
 40
0
 41
0
  0
VERTEX
  8
0
 10
10.2362
 20
28.9878
 30
0.0
 40
0
 41
0
  0
VERTEX
  8
0
 10
10.3543
 20
28.9878
 30
0.0
 40
0
 41
0
  0
VERTEX
  8
0
 10
10.3543
 20
28.594
 30
0.0
 40
0
 41
0
  0
VERTEX
  8
0
 10
10.2362
 20
28.594
 30
0.0
 40
0
 41
0
  0
VERTEX
  8
0
 10
10.2362
 20
28.9878
 30
0.0
 40
0
 41
0
  0
SEQEND
 8
0
  0
POLYLINE
  8
0
 62
     7
 66
     1
 10
0
 20
0
 30
0.0
 70
     1
 40
0
 41
0
  0
VERTEX
  8
0
 10
10.2362
 20
27.8067
 30
0.0
 40
0
 41
0
  0
VERTEX
  8
0
 10
10.3543
 20
27.8067
 30
0.0
 40
0
 41
0
  0
VERTEX
  8
0
 10
10.3543
 20
27.4524
 30
0.0
 40
0
 41
0
  0
VERTEX
  8
0
 10
10.2362
 20
27.4524
 30
0.0
 40
0
 41
0
  0
VERTEX
  8
0
 10
10.2362
 20
27.8067
 30
0.0
 40
0
 41
0
  0
SEQEND
 8
0
  0
POLYLINE
  8
0
 62
     7
 66
     1
 10
0
 20
0
 30
0.0
 70
     1
 40
0
 41
0
  0
VERTEX
  8
0
 10
15
 20
30.1689
 30
0.0
 40
0
 41
0
  0
VERTEX
  8
0
 10
15.1181
 20
30.1689
 30
0.0
 40
0
 41
0
  0
VERTEX
  8
0
 10
15.1181
 20
29.7751
 30
0.0
 40
0
 41
0
  0
VERTEX
  8
0
 10
15
 20
29.7751
 30
0.0
 40
0
 41
0
  0
VERTEX
  8
0
 10
15
 20
30.1689
 30
0.0
 40
0
 41
0
  0
SEQEND
 8
0
  0
POLYLINE
  8
0
 62
     7
 66
     1
 10
0
 20
0
 30
0.0
 70
     1
 40
0
 41
0
  0
VERTEX
  8
0
 10
15
 20
28.9878
 30
0.0
 40
0
 41
0
  0
VERTEX
  8
0
 10
15.1181
 20
28.9878
 30
0.0
 40
0
 41
0
  0
VERTEX
  8
0
 10
15.1181
 20
28.594
 30
0.0
 40
0
 41
0
  0
VERTEX
  8
0
 10
15
 20
28.594
 30
0.0
 40
0
 41
0
  0
VERTEX
  8
0
 10
15
 20
28.9878
 30
0.0
 40
0
 41
0
  0
SEQEND
 8
0
  0
POLYLINE
  8
0
 62
     7
 66
     1
 10
0
 20
0
 30
0.0
 70
     1
 40
0
 41
0
  0
VERTEX
  8
0
 10
15
 20
27.8067
 30
0.0
 40
0
 41
0
  0
VERTEX
  8
0
 10
15.1181
 20
27.8067
 30
0.0
 40
0
 41
0
  0
VERTEX
  8
0
 10
15.1181
 20
27.4524
 30
0.0
 40
0
 41
0
  0
VERTEX
  8
0
 10
15
 20
27.4524
 30
0.0
 40
0
 41
0
  0
VERTEX
  8
0
 10
15
 20
27.8067
 30
0.0
 40
0
 41
0
  0
SEQEND
 8
0
  0
POLYLINE
  8
0
 62
     7
 66
     1
 10
0
 20
0
 30
0.0
 70
     1
 40
0
 41
0
  0
VERTEX
  8
0
 10
10.7087
 20
28.791
 30
0.0
 40
0
 41
0
  0
VERTEX
  8
0
 10
11.496
 20
28.791
 30
0.0
 40
0
 41
0
  0
VERTEX
  8
0
 10
11.496
 20
28.6728
 30
0.0
 40
0
 41
0
  0
VERTEX
  8
0
 10
10.7087
 20
28.6728
 30
0.0
 40
0
 41
0
  0
VERTEX
  8
0
 10
10.7087
 20
28.791
 30
0.0
 40
0
 41
0
  0
SEQEND
 8
0
  0
POLYLINE
  8
0
 62
     7
 66
     1
 10
0
 20
0
 30
0.0
 70
     1
 40
0
 41
0
  0
VERTEX
  8
0
 10
12.2835
 20
28.791
 30
0.0
 40
0
 41
0
  0
VERTEX
  8
0
 10
13.0709
 20
28.791
 30
0.0
 40
0
 41
0
  0
VERTEX
  8
0
 10
13.0709
 20
28.6728
 30
0.0
 40
0
 41
0
  0
VERTEX
  8
0
 10
12.2835
 20
28.6728
 30
0.0
 40
0
 41
0
  0
VERTEX
  8
0
 10
12.2835
 20
28.791
 30
0.0
 40
0
 41
0
  0
SEQEND
 8
0
  0
POLYLINE
  8
0
 62
     7
 66
     1
 10
0
 20
0
 30
0.0
 70
     1
 40
0
 41
0
  0
VERTEX
  8
0
 10
13.8583
 20
28.791
 30
0.0
 40
0
 41
0
  0
VERTEX
  8
0
 10
14.6457
 20
28.791
 30
0.0
 40
0
 41
0
  0
VERTEX
  8
0
 10
14.6457
 20
28.6728
 30
0.0
 40
0
 41
0
  0
VERTEX
  8
0
 10
13.8583
 20
28.6728
 30
0.0
 40
0
 41
0
  0
VERTEX
  8
0
 10
13.8583
 20
28.791
 30
0.0
 40
0
 41
0
  0
SEQEND
 8
0
  0
POLYLINE
  8
0
 62
     7
 66
     1
 10
0
 20
0
 30
0.0
 70
     1
 40
0
 41
0
  0
VERTEX
  8
0
 10
8.93701
 20
30.4839
 30
0.0
 40
0
 41
0
  0
VERTEX
  8
0
 10
9.37007
 20
30.4839
 30
0.0
 40
0
 41
0
  0
VERTEX
  8
0
 10
9.37007
 20
30.3657
 30
0.0
 40
0
 41
0
  0
VERTEX
  8
0
 10
8.93701
 20
30.3657
 30
0.0
 40
0
 41
0
  0
VERTEX
  8
0
 10
8.93701
 20
30.4839
 30
0.0
 40
0
 41
0
  0
SEQEND
 8
0
  0
POLYLINE
  8
0
 62
     7
 66
     1
 10
0
 20
0
 30
0.0
 70
     1
 40
0
 41
0
  0
VERTEX
  8
0
 10
9.80317
 20
30.4839
 30
0.0
 40
0
 41
0
  0
VERTEX
  8
0
 10
10.2362
 20
30.4839
 30
0.0
 40
0
 41
0
  0
VERTEX
  8
0
 10
10.2362
 20
30.3657
 30
0.0
 40
0
 41
0
  0
VERTEX
  8
0
 10
9.80317
 20
30.3657
 30
0.0
 40
0
 41
0
  0
VERTEX
  8
0
 10
9.80317
 20
30.4839
 30
0.0
 40
0
 41
0
  0
SEQEND
 8
0
  0
POLYLINE
  8
0
 62
     7
 66
     1
 10
0
 20
0
 30
0.0
 70
     1
 40
0
 41
0
  0
VERTEX
  8
0
 10
15.9843
 20
30.4839
 30
0.0
 40
0
 41
0
  0
VERTEX
  8
0
 10
16.4174
 20
30.4839
 30
0.0
 40
0
 41
0
  0
VERTEX
  8
0
 10
16.4174
 20
30.3657
 30
0.0
 40
0
 41
0
  0
VERTEX
  8
0
 10
15.9843
 20
30.3657
 30
0.0
 40
0
 41
0
  0
VERTEX
  8
0
 10
15.9843
 20
30.4839
 30
0.0
 40
0
 41
0
  0
SEQEND
 8
0
  0
POLYLINE
  8
0
 62
     7
 66
     1
 10
0
 20
0
 30
0.0
 70
     1
 40
0
 41
0
  0
VERTEX
  8
0
 10
15.1181
 20
30.4839
 30
0.0
 40
0
 41
0
  0
VERTEX
  8
0
 10
15.5511
 20
30.4839
 30
0.0
 40
0
 41
0
  0
VERTEX
  8
0
 10
15.5511
 20
30.3657
 30
0.0
 40
0
 41
0
  0
VERTEX
  8
0
 10
15.1181
 20
30.3657
 30
0.0
 40
0
 41
0
  0
VERTEX
  8
0
 10
15.1181
 20
30.4839
 30
0.0
 40
0
 41
0
  0
SEQEND
 8
0
  0
POLYLINE
  8
0
 62
     0
 66
     1
 10
0
 20
0
 30
0.0
 70
     1
 40
0
 41
0
  0
VERTEX
  8
0
 10
0.196832
 20
22.5704
 30
0.0
 40
0
 41
0
  0
VERTEX
  8
0
 10
4.25196
 20
22.5704
 30
0.0
 40
0
 41
0
  0
VERTEX
  8
0
 10
4.25196
 20
19.224
 30
0.0
 40
0
 41
0
  0
VERTEX
  8
0
 10
0.196832
 20
19.224
 30
0.0
 40
0
 41
0
  0
VERTEX
  8
0
 10
0.196832
 20
22.5704
 30
0.0
 40
0
 41
0
  0
SEQEND
 8
0
  0
POLYLINE
  8
0
 62
     7
 66
     1
 10
0
 20
0
 30
0.0
 70
     1
 40
0
 41
0
  0
VERTEX
  8
0
 10
1.27951
 20
20.5429
 30
0.0
 40
0
 41
0
  0
VERTEX
  8
0
 10
1.27951
 20
20.5331
 30
0.0
 40
0
 41
0
  0
VERTEX
  8
0
 10
1.2755
 20
20.5032
 30
0.0
 40
0
 41
0
  0
VERTEX
  8
0
 10
1.264
 20
20.4662
 30
0.0
 40
0
 41
0
  0
VERTEX
  8
0
 10
1.24588
 20
20.4328
 30
0.0
 40
0
 41
0
  0
VERTEX
  8
0
 10
1.22184
 20
20.4037
 30
0.0
 40
0
 41
0
  0
VERTEX
  8
0
 10
1.19271
 20
20.3797
 30
0.0
 40
0
 41
0
  0
VERTEX
  8
0
 10
1.15929
 20
20.3615
 30
0.0
 40
0
 41
0
  0
VERTEX
  8
0
 10
1.12234
 20
20.35
 30
0.0
 40
0
 41
0
  0
VERTEX
  8
0
 10
1.09256
 20
20.346
 30
0.0
 40
0
 41
0
  0
VERTEX
  8
0
 10
1.08268
 20
20.346
 30
0.0
 40
0
 41
0
  0
VERTEX
  8
0
 10
1.07275
 20
20.346
 30
0.0
 40
0
 41
0
  0
VERTEX
  8
0
 10
1.04297
 20
20.35
 30
0.0
 40
0
 41
0
  0
VERTEX
  8
0
 10
1.00602
 20
20.3615
 30
0.0
 40
0
 41
0
  0
VERTEX
  8
0
 10
0.972601
 20
20.3797
 30
0.0
 40
0
 41
0
  0
VERTEX
  8
0
 10
0.943468
 20
20.4037
 30
0.0
 40
0
 41
0
  0
VERTEX
  8
0
 10
0.919433
 20
20.4328
 30
0.0
 40
0
 41
0
  0
VERTEX
  8
0
 10
0.901313
 20
20.4662
 30
0.0
 40
0
 41
0
  0
VERTEX
  8
0
 10
0.889811
 20
20.5032
 30
0.0
 40
0
 41
0
  0
VERTEX
  8
0
 10
0.885851
 20
20.5331
 30
0.0
 40
0
 41
0
  0
VERTEX
  8
0
 10
0.885851
 20
20.5429
 30
0.0
 40
0
 41
0
  0
VERTEX
  8
0
 10
0.885851
 20
20.5528
 30
0.0
 40
0
 41
0
  0
VERTEX
  8
0
 10
0.889811
 20
20.5826
 30
0.0
 40
0
 41
0
  0
VERTEX
  8
0
 10
0.901313
 20
20.6196
 30
0.0
 40
0
 41
0
  0
VERTEX
  8
0
 10
0.919433
 20
20.6529
 30
0.0
 40
0
 41
0
  0
VERTEX
  8
0
 10
0.943468
 20
20.6821
 30
0.0
 40
0
 41
0
  0
VERTEX
  8
0
 10
0.972601
 20
20.7061
 30
0.0
 40
0
 41
0
  0
VERTEX
  8
0
 10
1.00602
 20
20.7243
 30
0.0
 40
0
 41
0
  0
VERTEX
  8
0
 10
1.04297
 20
20.7358
 30
0.0
 40
0
 41
0
  0
VERTEX
  8
0
 10
1.07275
 20
20.7397
 30
0.0
 40
0
 41
0
  0
VERTEX
  8
0
 10
1.08268
 20
20.7397
 30
0.0
 40
0
 41
0
  0
VERTEX
  8
0
 10
1.09256
 20
20.7397
 30
0.0
 40
0
 41
0
  0
VERTEX
  8
0
 10
1.12234
 20
20.7358
 30
0.0
 40
0
 41
0
  0
VERTEX
  8
0
 10
1.15929
 20
20.7243
 30
0.0
 40
0
 41
0
  0
VERTEX
  8
0
 10
1.19271
 20
20.7061
 30
0.0
 40
0
 41
0
  0
VERTEX
  8
0
 10
1.22184
 20
20.6821
 30
0.0
 40
0
 41
0
  0
VERTEX
  8
0
 10
1.24588
 20
20.6529
 30
0.0
 40
0
 41
0
  0
VERTEX
  8
0
 10
1.264
 20
20.6196
 30
0.0
 40
0
 41
0
  0
VERTEX
  8
0
 10
1.2755
 20
20.5826
 30
0.0
 40
0
 41
0
  0
VERTEX
  8
0
 10
1.27951
 20
20.5528
 30
0.0
 40
0
 41
0
  0
VERTEX
  8
0
 10
1.27951
 20
20.5429
 30
0.0
 40
0
 41
0
  0
SEQEND
 8
0
  0
POLYLINE
  8
0
 62
     7
 66
     1
 10
0
 20
0
 30
0.0
 70
     1
 40
0
 41
0
  0
VERTEX
  8
0
 10
0.472439
 20
20.2476
 30
0.0
 40
0
 41
0
  0
VERTEX
  8
0
 10
0.472439
 20
20.24
 30
0.0
 40
0
 41
0
  0
VERTEX
  8
0
 10
0.4662
 20
20.2169
 30
0.0
 40
0
 41
0
  0
VERTEX
  8
0
 10
0.449328
 20
20.1919
 30
0.0
 40
0
 41
0
  0
VERTEX
  8
0
 10
0.424317
 20
20.1751
 30
0.0
 40
0
 41
0
  0
VERTEX
  8
0
 10
0.401367
 20
20.1689
 30
0.0
 40
0
 41
0
  0
VERTEX
  8
0
 10
0.393718
 20
20.1689
 30
0.0
 40
0
 41
0
  0
VERTEX
  8
0
 10
0.386014
 20
20.1689
 30
0.0
 40
0
 41
0
  0
VERTEX
  8
0
 10
0.36301
 20
20.1751
 30
0.0
 40
0
 41
0
  0
VERTEX
  8
0
 10
0.337999
 20
20.1919
 30
0.0
 40
0
 41
0
  0
VERTEX
  8
0
 10
0.321126
 20
20.2169
 30
0.0
 40
0
 41
0
  0
VERTEX
  8
0
 10
0.314942
 20
20.24
 30
0.0
 40
0
 41
0
  0
VERTEX
  8
0
 10
0.314942
 20
20.2476
 30
0.0
 40
0
 41
0
  0
VERTEX
  8
0
 10
0.314942
 20
20.2553
 30
0.0
 40
0
 41
0
  0
VERTEX
  8
0
 10
0.321126
 20
20.2783
 30
0.0
 40
0
 41
0
  0
VERTEX
  8
0
 10
0.337999
 20
20.3033
 30
0.0
 40
0
 41
0
  0
VERTEX
  8
0
 10
0.36301
 20
20.3201
 30
0.0
 40
0
 41
0
  0
VERTEX
  8
0
 10
0.386014
 20
20.3264
 30
0.0
 40
0
 41
0
  0
VERTEX
  8
0
 10
0.393718
 20
20.3264
 30
0.0
 40
0
 41
0
  0
VERTEX
  8
0
 10
0.401367
 20
20.3264
 30
0.0
 40
0
 41
0
  0
VERTEX
  8
0
 10
0.424317
 20
20.3201
 30
0.0
 40
0
 41
0
  0
VERTEX
  8
0
 10
0.449328
 20
20.3033
 30
0.0
 40
0
 41
0
  0
VERTEX
  8
0
 10
0.4662
 20
20.2783
 30
0.0
 40
0
 41
0
  0
VERTEX
  8
0
 10
0.472439
 20
20.2553
 30
0.0
 40
0
 41
0
  0
VERTEX
  8
0
 10
0.472439
 20
20.2476
 30
0.0
 40
0
 41
0
  0
SEQEND
 8
0
  0
POLYLINE
  8
0
 62
     7
 66
     1
 10
0
 20
0
 30
0.0
 70
     1
 40
0
 41
0
  0
VERTEX
  8
0
 10
1.85038
 20
20.2476
 30
0.0
 40
0
 41
0
  0
VERTEX
  8
0
 10
1.85038
 20
20.24
 30
0.0
 40
0
 41
0
  0
VERTEX
  8
0
 10
1.84418
 20
20.2169
 30
0.0
 40
0
 41
0
  0
VERTEX
  8
0
 10
1.82731
 20
20.1919
 30
0.0
 40
0
 41
0
  0
VERTEX
  8
0
 10
1.80231
 20
20.1751
 30
0.0
 40
0
 41
0
  0
VERTEX
  8
0
 10
1.77929
 20
20.1689
 30
0.0
 40
0
 41
0
  0
VERTEX
  8
0
 10
1.77165
 20
20.1689
 30
0.0
 40
0
 41
0
  0
VERTEX
  8
0
 10
1.76394
 20
20.1689
 30
0.0
 40
0
 41
0
  0
VERTEX
  8
0
 10
1.741
 20
20.1751
 30
0.0
 40
0
 41
0
  0
VERTEX
  8
0
 10
1.71599
 20
20.1919
 30
0.0
 40
0
 41
0
  0
VERTEX
  8
0
 10
1.69911
 20
20.2169
 30
0.0
 40
0
 41
0
  0
VERTEX
  8
0
 10
1.69293
 20
20.24
 30
0.0
 40
0
 41
0
  0
VERTEX
  8
0
 10
1.69293
 20
20.2476
 30
0.0
 40
0
 41
0
  0
VERTEX
  8
0
 10
1.69293
 20
20.2553
 30
0.0
 40
0
 41
0
  0
VERTEX
  8
0
 10
1.69911
 20
20.2783
 30
0.0
 40
0
 41
0
  0
VERTEX
  8
0
 10
1.71599
 20
20.3033
 30
0.0
 40
0
 41
0
  0
VERTEX
  8
0
 10
1.741
 20
20.3201
 30
0.0
 40
0
 41
0
  0
VERTEX
  8
0
 10
1.76394
 20
20.3264
 30
0.0
 40
0
 41
0
  0
VERTEX
  8
0
 10
1.77165
 20
20.3264
 30
0.0
 40
0
 41
0
  0
VERTEX
  8
0
 10
1.77929
 20
20.3264
 30
0.0
 40
0
 41
0
  0
VERTEX
  8
0
 10
1.80231
 20
20.3201
 30
0.0
 40
0
 41
0
  0
VERTEX
  8
0
 10
1.82731
 20
20.3033
 30
0.0
 40
0
 41
0
  0
VERTEX
  8
0
 10
1.84418
 20
20.2783
 30
0.0
 40
0
 41
0
  0
VERTEX
  8
0
 10
1.85038
 20
20.2553
 30
0.0
 40
0
 41
0
  0
VERTEX
  8
0
 10
1.85038
 20
20.2476
 30
0.0
 40
0
 41
0
  0
SEQEND
 8
0
  0
POLYLINE
  8
0
 62
     7
 66
     1
 10
0
 20
0
 30
0.0
 70
     1
 40
0
 41
0
  0
VERTEX
  8
0
 10
0.472439
 20
21.5075
 30
0.0
 40
0
 41
0
  0
VERTEX
  8
0
 10
0.472439
 20
21.4997
 30
0.0
 40
0
 41
0
  0
VERTEX
  8
0
 10
0.4662
 20
21.4768
 30
0.0
 40
0
 41
0
  0
VERTEX
  8
0
 10
0.449328
 20
21.4518
 30
0.0
 40
0
 41
0
  0
VERTEX
  8
0
 10
0.424317
 20
21.435
 30
0.0
 40
0
 41
0
  0
VERTEX
  8
0
 10
0.401367
 20
21.4288
 30
0.0
 40
0
 41
0
  0
VERTEX
  8
0
 10
0.393718
 20
21.4288
 30
0.0
 40
0
 41
0
  0
VERTEX
  8
0
 10
0.386014
 20
21.4288
 30
0.0
 40
0
 41
0
  0
VERTEX
  8
0
 10
0.36301
 20
21.435
 30
0.0
 40
0
 41
0
  0
VERTEX
  8
0
 10
0.337999
 20
21.4518
 30
0.0
 40
0
 41
0
  0
VERTEX
  8
0
 10
0.321126
 20
21.4768
 30
0.0
 40
0
 41
0
  0
VERTEX
  8
0
 10
0.314942
 20
21.4997
 30
0.0
 40
0
 41
0
  0
VERTEX
  8
0
 10
0.314942
 20
21.5075
 30
0.0
 40
0
 41
0
  0
VERTEX
  8
0
 10
0.314942
 20
21.5151
 30
0.0
 40
0
 41
0
  0
VERTEX
  8
0
 10
0.321126
 20
21.5382
 30
0.0
 40
0
 41
0
  0
VERTEX
  8
0
 10
0.337999
 20
21.5632
 30
0.0
 40
0
 41
0
  0
VERTEX
  8
0
 10
0.36301
 20
21.58
 30
0.0
 40
0
 41
0
  0
VERTEX
  8
0
 10
0.386014
 20
21.5861
 30
0.0
 40
0
 41
0
  0
VERTEX
  8
0
 10
0.393718
 20
21.5861
 30
0.0
 40
0
 41
0
  0
VERTEX
  8
0
 10
0.401367
 20
21.5861
 30
0.0
 40
0
 41
0
  0
VERTEX
  8
0
 10
0.424317
 20
21.58
 30
0.0
 40
0
 41
0
  0
VERTEX
  8
0
 10
0.449328
 20
21.5632
 30
0.0
 40
0
 41
0
  0
VERTEX
  8
0
 10
0.4662
 20
21.5382
 30
0.0
 40
0
 41
0
  0
VERTEX
  8
0
 10
0.472439
 20
21.5151
 30
0.0
 40
0
 41
0
  0
VERTEX
  8
0
 10
0.472439
 20
21.5075
 30
0.0
 40
0
 41
0
  0
SEQEND
 8
0
  0
POLYLINE
  8
0
 62
     7
 66
     1
 10
0
 20
0
 30
0.0
 70
     1
 40
0
 41
0
  0
VERTEX
  8
0
 10
1.85038
 20
21.5075
 30
0.0
 40
0
 41
0
  0
VERTEX
  8
0
 10
1.85038
 20
21.4997
 30
0.0
 40
0
 41
0
  0
VERTEX
  8
0
 10
1.84418
 20
21.4768
 30
0.0
 40
0
 41
0
  0
VERTEX
  8
0
 10
1.82731
 20
21.4518
 30
0.0
 40
0
 41
0
  0
VERTEX
  8
0
 10
1.80231
 20
21.435
 30
0.0
 40
0
 41
0
  0
VERTEX
  8
0
 10
1.77929
 20
21.4288
 30
0.0
 40
0
 41
0
  0
VERTEX
  8
0
 10
1.77165
 20
21.4288
 30
0.0
 40
0
 41
0
  0
VERTEX
  8
0
 10
1.76394
 20
21.4288
 30
0.0
 40
0
 41
0
  0
VERTEX
  8
0
 10
1.741
 20
21.435
 30
0.0
 40
0
 41
0
  0
VERTEX
  8
0
 10
1.71599
 20
21.4518
 30
0.0
 40
0
 41
0
  0
VERTEX
  8
0
 10
1.69911
 20
21.4768
 30
0.0
 40
0
 41
0
  0
VERTEX
  8
0
 10
1.69293
 20
21.4997
 30
0.0
 40
0
 41
0
  0
VERTEX
  8
0
 10
1.69293
 20
21.5075
 30
0.0
 40
0
 41
0
  0
VERTEX
  8
0
 10
1.69293
 20
21.5151
 30
0.0
 40
0
 41
0
  0
VERTEX
  8
0
 10
1.69911
 20
21.5382
 30
0.0
 40
0
 41
0
  0
VERTEX
  8
0
 10
1.71599
 20
21.5632
 30
0.0
 40
0
 41
0
  0
VERTEX
  8
0
 10
1.741
 20
21.58
 30
0.0
 40
0
 41
0
  0
VERTEX
  8
0
 10
1.76394
 20
21.5861
 30
0.0
 40
0
 41
0
  0
VERTEX
  8
0
 10
1.77165
 20
21.5861
 30
0.0
 40
0
 41
0
  0
VERTEX
  8
0
 10
1.77929
 20
21.5861
 30
0.0
 40
0
 41
0
  0
VERTEX
  8
0
 10
1.80231
 20
21.58
 30
0.0
 40
0
 41
0
  0
VERTEX
  8
0
 10
1.82731
 20
21.5632
 30
0.0
 40
0
 41
0
  0
VERTEX
  8
0
 10
1.84418
 20
21.5382
 30
0.0
 40
0
 41
0
  0
VERTEX
  8
0
 10
1.85038
 20
21.5151
 30
0.0
 40
0
 41
0
  0
VERTEX
  8
0
 10
1.85038
 20
21.5075
 30
0.0
 40
0
 41
0
  0
SEQEND
 8
0
  0
POLYLINE
  8
0
 62
     7
 66
     1
 10
0
 20
0
 30
0.0
 70
     1
 40
0
 41
0
  0
VERTEX
  8
0
 10
1.27951
 20
21.2122
 30
0.0
 40
0
 41
0
  0
VERTEX
  8
0
 10
1.27951
 20
21.2024
 30
0.0
 40
0
 41
0
  0
VERTEX
  8
0
 10
1.2755
 20
21.1725
 30
0.0
 40
0
 41
0
  0
VERTEX
  8
0
 10
1.264
 20
21.1356
 30
0.0
 40
0
 41
0
  0
VERTEX
  8
0
 10
1.24588
 20
21.1022
 30
0.0
 40
0
 41
0
  0
VERTEX
  8
0
 10
1.22184
 20
21.0729
 30
0.0
 40
0
 41
0
  0
VERTEX
  8
0
 10
1.19271
 20
21.0489
 30
0.0
 40
0
 41
0
  0
VERTEX
  8
0
 10
1.15929
 20
21.0308
 30
0.0
 40
0
 41
0
  0
VERTEX
  8
0
 10
1.12234
 20
21.0193
 30
0.0
 40
0
 41
0
  0
VERTEX
  8
0
 10
1.09256
 20
21.0153
 30
0.0
 40
0
 41
0
  0
VERTEX
  8
0
 10
1.08268
 20
21.0153
 30
0.0
 40
0
 41
0
  0
VERTEX
  8
0
 10
1.07275
 20
21.0153
 30
0.0
 40
0
 41
0
  0
VERTEX
  8
0
 10
1.04297
 20
21.0193
 30
0.0
 40
0
 41
0
  0
VERTEX
  8
0
 10
1.00602
 20
21.0308
 30
0.0
 40
0
 41
0
  0
VERTEX
  8
0
 10
0.972601
 20
21.0489
 30
0.0
 40
0
 41
0
  0
VERTEX
  8
0
 10
0.943468
 20
21.0729
 30
0.0
 40
0
 41
0
  0
VERTEX
  8
0
 10
0.919433
 20
21.1022
 30
0.0
 40
0
 41
0
  0
VERTEX
  8
0
 10
0.901313
 20
21.1356
 30
0.0
 40
0
 41
0
  0
VERTEX
  8
0
 10
0.889811
 20
21.1725
 30
0.0
 40
0
 41
0
  0
VERTEX
  8
0
 10
0.885851
 20
21.2024
 30
0.0
 40
0
 41
0
  0
VERTEX
  8
0
 10
0.885851
 20
21.2122
 30
0.0
 40
0
 41
0
  0
VERTEX
  8
0
 10
0.885851
 20
21.2221
 30
0.0
 40
0
 41
0
  0
VERTEX
  8
0
 10
0.889811
 20
21.2518
 30
0.0
 40
0
 41
0
  0
VERTEX
  8
0
 10
0.901313
 20
21.2888
 30
0.0
 40
0
 41
0
  0
VERTEX
  8
0
 10
0.919433
 20
21.3222
 30
0.0
 40
0
 41
0
  0
VERTEX
  8
0
 10
0.943468
 20
21.3514
 30
0.0
 40
0
 41
0
  0
VERTEX
  8
0
 10
0.972601
 20
21.3754
 30
0.0
 40
0
 41
0
  0
VERTEX
  8
0
 10
1.00602
 20
21.3936
 30
0.0
 40
0
 41
0
  0
VERTEX
  8
0
 10
1.04297
 20
21.405
 30
0.0
 40
0
 41
0
  0
VERTEX
  8
0
 10
1.07275
 20
21.409
 30
0.0
 40
0
 41
0
  0
VERTEX
  8
0
 10
1.08268
 20
21.409
 30
0.0
 40
0
 41
0
  0
VERTEX
  8
0
 10
1.09256
 20
21.409
 30
0.0
 40
0
 41
0
  0
VERTEX
  8
0
 10
1.12234
 20
21.405
 30
0.0
 40
0
 41
0
  0
VERTEX
  8
0
 10
1.15929
 20
21.3936
 30
0.0
 40
0
 41
0
  0
VERTEX
  8
0
 10
1.19271
 20
21.3754
 30
0.0
 40
0
 41
0
  0
VERTEX
  8
0
 10
1.22184
 20
21.3514
 30
0.0
 40
0
 41
0
  0
VERTEX
  8
0
 10
1.24588
 20
21.3222
 30
0.0
 40
0
 41
0
  0
VERTEX
  8
0
 10
1.264
 20
21.2888
 30
0.0
 40
0
 41
0
  0
VERTEX
  8
0
 10
1.2755
 20
21.2518
 30
0.0
 40
0
 41
0
  0
VERTEX
  8
0
 10
1.27951
 20
21.2221
 30
0.0
 40
0
 41
0
  0
VERTEX
  8
0
 10
1.27951
 20
21.2122
 30
0.0
 40
0
 41
0
  0
SEQEND
 8
0
  0
POLYLINE
  8
0
 62
     7
 66
     1
 10
0
 20
0
 30
0.0
 70
     1
 40
0
 41
0
  0
VERTEX
  8
0
 10
1.10238
 20
19.3421
 30
0.0
 40
0
 41
0
  0
VERTEX
  8
0
 10
1.81104
 20
19.3421
 30
0.0
 40
0
 41
0
  0
VERTEX
  8
0
 10
1.81104
 20
19.224
 30
0.0
 40
0
 41
0
  0
VERTEX
  8
0
 10
1.10238
 20
19.224
 30
0.0
 40
0
 41
0
  0
VERTEX
  8
0
 10
1.10238
 20
19.3421
 30
0.0
 40
0
 41
0
  0
SEQEND
 8
0
  0
POLYLINE
  8
0
 62
     7
 66
     1
 10
0
 20
0
 30
0.0
 70
     1
 40
0
 41
0
  0
VERTEX
  8
0
 10
2.51969
 20
19.3421
 30
0.0
 40
0
 41
0
  0
VERTEX
  8
0
 10
3.22835
 20
19.3421
 30
0.0
 40
0
 41
0
  0
VERTEX
  8
0
 10
3.22835
 20
19.224
 30
0.0
 40
0
 41
0
  0
VERTEX
  8
0
 10
2.51969
 20
19.224
 30
0.0
 40
0
 41
0
  0
VERTEX
  8
0
 10
2.51969
 20
19.3421
 30
0.0
 40
0
 41
0
  0
SEQEND
 8
0
  0
POLYLINE
  8
0
 62
     7
 66
     1
 10
0
 20
0
 30
0.0
 70
     1
 40
0
 41
0
  0
VERTEX
  8
0
 10
0.196832
 20
22.5704
 30
0.0
 40
0
 41
0
  0
VERTEX
  8
0
 10
0.393718
 20
22.5704
 30
0.0
 40
0
 41
0
  0
VERTEX
  8
0
 10
0.393718
 20
22.4524
 30
0.0
 40
0
 41
0
  0
VERTEX
  8
0
 10
0.196832
 20
22.4524
 30
0.0
 40
0
 41
0
  0
VERTEX
  8
0
 10
0.196832
 20
22.5704
 30
0.0
 40
0
 41
0
  0
SEQEND
 8
0
  0
POLYLINE
  8
0
 62
     7
 66
     1
 10
0
 20
0
 30
0.0
 70
     1
 40
0
 41
0
  0
VERTEX
  8
0
 10
4.13385
 20
22.5704
 30
0.0
 40
0
 41
0
  0
VERTEX
  8
0
 10
4.25196
 20
22.5704
 30
0.0
 40
0
 41
0
  0
VERTEX
  8
0
 10
4.25196
 20
22.2554
 30
0.0
 40
0
 41
0
  0
VERTEX
  8
0
 10
4.13385
 20
22.2554
 30
0.0
 40
0
 41
0
  0
VERTEX
  8
0
 10
4.13385
 20
22.5704
 30
0.0
 40
0
 41
0
  0
SEQEND
 8
0
  0
POLYLINE
  8
0
 62
     7
 66
     1
 10
0
 20
0
 30
0.0
 70
     1
 40
0
 41
0
  0
VERTEX
  8
0
 10
1.10238
 20
22.5704
 30
0.0
 40
0
 41
0
  0
VERTEX
  8
0
 10
1.81104
 20
22.5704
 30
0.0
 40
0
 41
0
  0
VERTEX
  8
0
 10
1.81104
 20
22.4524
 30
0.0
 40
0
 41
0
  0
VERTEX
  8
0
 10
1.10238
 20
22.4524
 30
0.0
 40
0
 41
0
  0
VERTEX
  8
0
 10
1.10238
 20
22.5704
 30
0.0
 40
0
 41
0
  0
SEQEND
 8
0
  0
POLYLINE
  8
0
 62
     7
 66
     1
 10
0
 20
0
 30
0.0
 70
     1
 40
0
 41
0
  0
VERTEX
  8
0
 10
4.13385
 20
19.5389
 30
0.0
 40
0
 41
0
  0
VERTEX
  8
0
 10
4.25196
 20
19.5389
 30
0.0
 40
0
 41
0
  0
VERTEX
  8
0
 10
4.25196
 20
19.224
 30
0.0
 40
0
 41
0
  0
VERTEX
  8
0
 10
4.13385
 20
19.224
 30
0.0
 40
0
 41
0
  0
VERTEX
  8
0
 10
4.13385
 20
19.5389
 30
0.0
 40
0
 41
0
  0
SEQEND
 8
0
  0
POLYLINE
  8
0
 62
     7
 66
     1
 10
0
 20
0
 30
0.0
 70
     1
 40
0
 41
0
  0
VERTEX
  8
0
 10
4.13385
 20
21.8618
 30
0.0
 40
0
 41
0
  0
VERTEX
  8
0
 10
4.25196
 20
21.8618
 30
0.0
 40
0
 41
0
  0
VERTEX
  8
0
 10
4.25196
 20
21.0744
 30
0.0
 40
0
 41
0
  0
VERTEX
  8
0
 10
4.13385
 20
21.0744
 30
0.0
 40
0
 41
0
  0
VERTEX
  8
0
 10
4.13385
 20
21.8618
 30
0.0
 40
0
 41
0
  0
SEQEND
 8
0
  0
POLYLINE
  8
0
 62
     7
 66
     1
 10
0
 20
0
 30
0.0
 70
     1
 40
0
 41
0
  0
VERTEX
  8
0
 10
4.13385
 20
20.6807
 30
0.0
 40
0
 41
0
  0
VERTEX
  8
0
 10
4.25196
 20
20.6807
 30
0.0
 40
0
 41
0
  0
VERTEX
  8
0
 10
4.25196
 20
19.8933
 30
0.0
 40
0
 41
0
  0
VERTEX
  8
0
 10
4.13385
 20
19.8933
 30
0.0
 40
0
 41
0
  0
VERTEX
  8
0
 10
4.13385
 20
20.6807
 30
0.0
 40
0
 41
0
  0
SEQEND
 8
0
  0
POLYLINE
  8
0
 62
     7
 66
     1
 10
0
 20
0
 30
0.0
 70
     1
 40
0
 41
0
  0
VERTEX
  8
0
 10
1.891
 20
20.8775
 30
0.0
 40
0
 41
0
  0
VERTEX
  8
0
 10
2.28472
 20
20.8775
 30
0.0
 40
0
 41
0
  0
VERTEX
  8
0
 10
2.28472
 20
20.7594
 30
0.0
 40
0
 41
0
  0
VERTEX
  8
0
 10
1.891
 20
20.7594
 30
0.0
 40
0
 41
0
  0
VERTEX
  8
0
 10
1.891
 20
20.8775
 30
0.0
 40
0
 41
0
  0
SEQEND
 8
0
  0
POLYLINE
  8
0
 62
     7
 66
     1
 10
0
 20
0
 30
0.0
 70
     1
 40
0
 41
0
  0
VERTEX
  8
0
 10
2.67844
 20
20.8775
 30
0.0
 40
0
 41
0
  0
VERTEX
  8
0
 10
3.0721
 20
20.8775
 30
0.0
 40
0
 41
0
  0
VERTEX
  8
0
 10
3.0721
 20
20.7594
 30
0.0
 40
0
 41
0
  0
VERTEX
  8
0
 10
2.67844
 20
20.7594
 30
0.0
 40
0
 41
0
  0
VERTEX
  8
0
 10
2.67844
 20
20.8775
 30
0.0
 40
0
 41
0
  0
SEQEND
 8
0
  0
POLYLINE
  8
0
 62
     7
 66
     1
 10
0
 20
0
 30
0.0
 70
     1
 40
0
 41
0
  0
VERTEX
  8
0
 10
3.46582
 20
20.8775
 30
0.0
 40
0
 41
0
  0
VERTEX
  8
0
 10
3.85954
 20
20.8775
 30
0.0
 40
0
 41
0
  0
VERTEX
  8
0
 10
3.85954
 20
20.7594
 30
0.0
 40
0
 41
0
  0
VERTEX
  8
0
 10
3.46582
 20
20.7594
 30
0.0
 40
0
 41
0
  0
VERTEX
  8
0
 10
3.46582
 20
20.8775
 30
0.0
 40
0
 41
0
  0
SEQEND
 8
0
  0
POLYLINE
  8
0
 62
     7
 66
     1
 10
0
 20
0
 30
0.0
 70
     1
 40
0
 41
0
  0
VERTEX
  8
0
 10
2.32281
 20
20.3264
 30
0.0
 40
0
 41
0
  0
VERTEX
  8
0
 10
3.89762
 20
20.3264
 30
0.0
 40
0
 41
0
  0
VERTEX
  8
0
 10
3.89762
 20
19.9326
 30
0.0
 40
0
 41
0
  0
VERTEX
  8
0
 10
2.32281
 20
19.9326
 30
0.0
 40
0
 41
0
  0
VERTEX
  8
0
 10
2.32281
 20
20.3264
 30
0.0
 40
0
 41
0
  0
SEQEND
 8
0
  0
POLYLINE
  8
0
 62
     7
 66
     1
 10
0
 20
0
 30
0.0
 70
     1
 40
0
 41
0
  0
VERTEX
  8
0
 10
0.196832
 20
19.3421
 30
0.0
 40
0
 41
0
  0
VERTEX
  8
0
 10
0.511828
 20
19.3421
 30
0.0
 40
0
 41
0
  0
VERTEX
  8
0
 10
0.511828
 20
19.224
 30
0.0
 40
0
 41
0
  0
VERTEX
  8
0
 10
0.196832
 20
19.224
 30
0.0
 40
0
 41
0
  0
VERTEX
  8
0
 10
0.196832
 20
19.3421
 30
0.0
 40
0
 41
0
  0
SEQEND
 8
0
  0
POLYLINE
  8
0
 62
     7
 66
     1
 10
0
 20
0
 30
0.0
 70
     1
 40
0
 41
0
  0
VERTEX
  8
0
 10
3.93701
 20
19.3421
 30
0.0
 40
0
 41
0
  0
VERTEX
  8
0
 10
4.25196
 20
19.3421
 30
0.0
 40
0
 41
0
  0
VERTEX
  8
0
 10
4.25196
 20
19.224
 30
0.0
 40
0
 41
0
  0
VERTEX
  8
0
 10
3.93701
 20
19.224
 30
0.0
 40
0
 41
0
  0
VERTEX
  8
0
 10
3.93701
 20
19.3421
 30
0.0
 40
0
 41
0
  0
SEQEND
 8
0
  0
POLYLINE
  8
0
 62
     0
 66
     1
 10
0
 20
0
 30
0.0
 70
     1
 40
0
 41
0
  0
VERTEX
  8
0
 10
4.44883
 20
22.5704
 30
0.0
 40
0
 41
0
  0
VERTEX
  8
0
 10
8.50396
 20
22.5704
 30
0.0
 40
0
 41
0
  0
VERTEX
  8
0
 10
8.50396
 20
19.224
 30
0.0
 40
0
 41
0
  0
VERTEX
  8
0
 10
4.44883
 20
19.224
 30
0.0
 40
0
 41
0
  0
VERTEX
  8
0
 10
4.44883
 20
22.5704
 30
0.0
 40
0
 41
0
  0
SEQEND
 8
0
  0
POLYLINE
  8
0
 62
     7
 66
     1
 10
0
 20
0
 30
0.0
 70
     1
 40
0
 41
0
  0
VERTEX
  8
0
 10
5.47244
 20
19.3421
 30
0.0
 40
0
 41
0
  0
VERTEX
  8
0
 10
6.1811
 20
19.3421
 30
0.0
 40
0
 41
0
  0
VERTEX
  8
0
 10
6.1811
 20
19.224
 30
0.0
 40
0
 41
0
  0
VERTEX
  8
0
 10
5.47244
 20
19.224
 30
0.0
 40
0
 41
0
  0
VERTEX
  8
0
 10
5.47244
 20
19.3421
 30
0.0
 40
0
 41
0
  0
SEQEND
 8
0
  0
POLYLINE
  8
0
 62
     7
 66
     1
 10
0
 20
0
 30
0.0
 70
     1
 40
0
 41
0
  0
VERTEX
  8
0
 10
6.88976
 20
19.3421
 30
0.0
 40
0
 41
0
  0
VERTEX
  8
0
 10
7.59842
 20
19.3421
 30
0.0
 40
0
 41
0
  0
VERTEX
  8
0
 10
7.59842
 20
19.224
 30
0.0
 40
0
 41
0
  0
VERTEX
  8
0
 10
6.88976
 20
19.224
 30
0.0
 40
0
 41
0
  0
VERTEX
  8
0
 10
6.88976
 20
19.3421
 30
0.0
 40
0
 41
0
  0
SEQEND
 8
0
  0
POLYLINE
  8
0
 62
     7
 66
     1
 10
0
 20
0
 30
0.0
 70
     1
 40
0
 41
0
  0
VERTEX
  8
0
 10
4.44883
 20
22.5704
 30
0.0
 40
0
 41
0
  0
VERTEX
  8
0
 10
4.64567
 20
22.5704
 30
0.0
 40
0
 41
0
  0
VERTEX
  8
0
 10
4.64567
 20
22.4524
 30
0.0
 40
0
 41
0
  0
VERTEX
  8
0
 10
4.44883
 20
22.4524
 30
0.0
 40
0
 41
0
  0
VERTEX
  8
0
 10
4.44883
 20
22.5704
 30
0.0
 40
0
 41
0
  0
SEQEND
 8
0
  0
POLYLINE
  8
0
 62
     7
 66
     1
 10
0
 20
0
 30
0.0
 70
     1
 40
0
 41
0
  0
VERTEX
  8
0
 10
8.38585
 20
22.5704
 30
0.0
 40
0
 41
0
  0
VERTEX
  8
0
 10
8.50396
 20
22.5704
 30
0.0
 40
0
 41
0
  0
VERTEX
  8
0
 10
8.50396
 20
22.2554
 30
0.0
 40
0
 41
0
  0
VERTEX
  8
0
 10
8.38585
 20
22.2554
 30
0.0
 40
0
 41
0
  0
VERTEX
  8
0
 10
8.38585
 20
22.5704
 30
0.0
 40
0
 41
0
  0
SEQEND
 8
0
  0
POLYLINE
  8
0
 62
     7
 66
     1
 10
0
 20
0
 30
0.0
 70
     1
 40
0
 41
0
  0
VERTEX
  8
0
 10
5.35433
 20
22.5704
 30
0.0
 40
0
 41
0
  0
VERTEX
  8
0
 10
6.06299
 20
22.5704
 30
0.0
 40
0
 41
0
  0
VERTEX
  8
0
 10
6.06299
 20
22.4524
 30
0.0
 40
0
 41
0
  0
VERTEX
  8
0
 10
5.35433
 20
22.4524
 30
0.0
 40
0
 41
0
  0
VERTEX
  8
0
 10
5.35433
 20
22.5704
 30
0.0
 40
0
 41
0
  0
SEQEND
 8
0
  0
POLYLINE
  8
0
 62
     7
 66
     1
 10
0
 20
0
 30
0.0
 70
     1
 40
0
 41
0
  0
VERTEX
  8
0
 10
8.38585
 20
19.5389
 30
0.0
 40
0
 41
0
  0
VERTEX
  8
0
 10
8.50396
 20
19.5389
 30
0.0
 40
0
 41
0
  0
VERTEX
  8
0
 10
8.50396
 20
19.224
 30
0.0
 40
0
 41
0
  0
VERTEX
  8
0
 10
8.38585
 20
19.224
 30
0.0
 40
0
 41
0
  0
VERTEX
  8
0
 10
8.38585
 20
19.5389
 30
0.0
 40
0
 41
0
  0
SEQEND
 8
0
  0
POLYLINE
  8
0
 62
     7
 66
     1
 10
0
 20
0
 30
0.0
 70
     1
 40
0
 41
0
  0
VERTEX
  8
0
 10
8.38585
 20
21.8618
 30
0.0
 40
0
 41
0
  0
VERTEX
  8
0
 10
8.50396
 20
21.8618
 30
0.0
 40
0
 41
0
  0
VERTEX
  8
0
 10
8.50396
 20
21.0744
 30
0.0
 40
0
 41
0
  0
VERTEX
  8
0
 10
8.38585
 20
21.0744
 30
0.0
 40
0
 41
0
  0
VERTEX
  8
0
 10
8.38585
 20
21.8618
 30
0.0
 40
0
 41
0
  0
SEQEND
 8
0
  0
POLYLINE
  8
0
 62
     7
 66
     1
 10
0
 20
0
 30
0.0
 70
     1
 40
0
 41
0
  0
VERTEX
  8
0
 10
8.38585
 20
20.6807
 30
0.0
 40
0
 41
0
  0
VERTEX
  8
0
 10
8.50396
 20
20.6807
 30
0.0
 40
0
 41
0
  0
VERTEX
  8
0
 10
8.50396
 20
19.8933
 30
0.0
 40
0
 41
0
  0
VERTEX
  8
0
 10
8.38585
 20
19.8933
 30
0.0
 40
0
 41
0
  0
VERTEX
  8
0
 10
8.38585
 20
20.6807
 30
0.0
 40
0
 41
0
  0
SEQEND
 8
0
  0
POLYLINE
  8
0
 62
     7
 66
     1
 10
0
 20
0
 30
0.0
 70
     1
 40
0
 41
0
  0
VERTEX
  8
0
 10
6.14296
 20
20.8775
 30
0.0
 40
0
 41
0
  0
VERTEX
  8
0
 10
6.53668
 20
20.8775
 30
0.0
 40
0
 41
0
  0
VERTEX
  8
0
 10
6.53668
 20
20.7594
 30
0.0
 40
0
 41
0
  0
VERTEX
  8
0
 10
6.14296
 20
20.7594
 30
0.0
 40
0
 41
0
  0
VERTEX
  8
0
 10
6.14296
 20
20.8775
 30
0.0
 40
0
 41
0
  0
SEQEND
 8
0
  0
POLYLINE
  8
0
 62
     7
 66
     1
 10
0
 20
0
 30
0.0
 70
     1
 40
0
 41
0
  0
VERTEX
  8
0
 10
5.35558
 20
20.8775
 30
0.0
 40
0
 41
0
  0
VERTEX
  8
0
 10
5.74929
 20
20.8775
 30
0.0
 40
0
 41
0
  0
VERTEX
  8
0
 10
5.74929
 20
20.7594
 30
0.0
 40
0
 41
0
  0
VERTEX
  8
0
 10
5.35558
 20
20.7594
 30
0.0
 40
0
 41
0
  0
VERTEX
  8
0
 10
5.35558
 20
20.8775
 30
0.0
 40
0
 41
0
  0
SEQEND
 8
0
  0
POLYLINE
  8
0
 62
     7
 66
     1
 10
0
 20
0
 30
0.0
 70
     1
 40
0
 41
0
  0
VERTEX
  8
0
 10
4.56819
 20
20.8775
 30
0.0
 40
0
 41
0
  0
VERTEX
  8
0
 10
4.96186
 20
20.8775
 30
0.0
 40
0
 41
0
  0
VERTEX
  8
0
 10
4.96186
 20
20.7594
 30
0.0
 40
0
 41
0
  0
VERTEX
  8
0
 10
4.56819
 20
20.7594
 30
0.0
 40
0
 41
0
  0
VERTEX
  8
0
 10
4.56819
 20
20.8775
 30
0.0
 40
0
 41
0
  0
SEQEND
 8
0
  0
POLYLINE
  8
0
 62
     7
 66
     1
 10
0
 20
0
 30
0.0
 70
     1
 40
0
 41
0
  0
VERTEX
  8
0
 10
6.93039
 20
20.8775
 30
0.0
 40
0
 41
0
  0
VERTEX
  8
0
 10
7.32411
 20
20.8775
 30
0.0
 40
0
 41
0
  0
VERTEX
  8
0
 10
7.32411
 20
20.7594
 30
0.0
 40
0
 41
0
  0
VERTEX
  8
0
 10
6.93039
 20
20.7594
 30
0.0
 40
0
 41
0
  0
VERTEX
  8
0
 10
6.93039
 20
20.8775
 30
0.0
 40
0
 41
0
  0
SEQEND
 8
0
  0
POLYLINE
  8
0
 62
     7
 66
     1
 10
0
 20
0
 30
0.0
 70
     1
 40
0
 41
0
  0
VERTEX
  8
0
 10
7.71778
 20
20.8775
 30
0.0
 40
0
 41
0
  0
VERTEX
  8
0
 10
8.11149
 20
20.8775
 30
0.0
 40
0
 41
0
  0
VERTEX
  8
0
 10
8.11149
 20
20.7594
 30
0.0
 40
0
 41
0
  0
VERTEX
  8
0
 10
7.71778
 20
20.7594
 30
0.0
 40
0
 41
0
  0
VERTEX
  8
0
 10
7.71778
 20
20.8775
 30
0.0
 40
0
 41
0
  0
SEQEND
 8
0
  0
POLYLINE
  8
0
 62
     7
 66
     1
 10
0
 20
0
 30
0.0
 70
     1
 40
0
 41
0
  0
VERTEX
  8
0
 10
6.57482
 20
20.3264
 30
0.0
 40
0
 41
0
  0
VERTEX
  8
0
 10
8.14963
 20
20.3264
 30
0.0
 40
0
 41
0
  0
VERTEX
  8
0
 10
8.14963
 20
19.9326
 30
0.0
 40
0
 41
0
  0
VERTEX
  8
0
 10
6.57482
 20
19.9326
 30
0.0
 40
0
 41
0
  0
VERTEX
  8
0
 10
6.57482
 20
20.3264
 30
0.0
 40
0
 41
0
  0
SEQEND
 8
0
  0
POLYLINE
  8
0
 62
     7
 66
     1
 10
0
 20
0
 30
0.0
 70
     1
 40
0
 41
0
  0
VERTEX
  8
0
 10
4.44883
 20
19.3421
 30
0.0
 40
0
 41
0
  0
VERTEX
  8
0
 10
4.76378
 20
19.3421
 30
0.0
 40
0
 41
0
  0
VERTEX
  8
0
 10
4.76378
 20
19.224
 30
0.0
 40
0
 41
0
  0
VERTEX
  8
0
 10
4.44883
 20
19.224
 30
0.0
 40
0
 41
0
  0
VERTEX
  8
0
 10
4.44883
 20
19.3421
 30
0.0
 40
0
 41
0
  0
SEQEND
 8
0
  0
POLYLINE
  8
0
 62
     7
 66
     1
 10
0
 20
0
 30
0.0
 70
     1
 40
0
 41
0
  0
VERTEX
  8
0
 10
8.18896
 20
19.3421
 30
0.0
 40
0
 41
0
  0
VERTEX
  8
0
 10
8.50396
 20
19.3421
 30
0.0
 40
0
 41
0
  0
VERTEX
  8
0
 10
8.50396
 20
19.224
 30
0.0
 40
0
 41
0
  0
VERTEX
  8
0
 10
8.18896
 20
19.224
 30
0.0
 40
0
 41
0
  0
VERTEX
  8
0
 10
8.18896
 20
19.3421
 30
0.0
 40
0
 41
0
  0
SEQEND
 8
0
  0
POLYLINE
  8
0
 62
     7
 66
     1
 10
0
 20
0
 30
0.0
 70
     1
 40
0
 41
0
  0
VERTEX
  8
0
 10
18.2283
 20
24.4996
 30
0.0
 40
0
 41
0
  0
VERTEX
  8
0
 10
19.6457
 20
24.4996
 30
0.0
 40
0
 41
0
  0
VERTEX
  8
0
 10
19.6457
 20
24.3814
 30
0.0
 40
0
 41
0
  0
VERTEX
  8
0
 10
18.2283
 20
24.3814
 30
0.0
 40
0
 41
0
  0
VERTEX
  8
0
 10
18.2283
 20
24.4996
 30
0.0
 40
0
 41
0
  0
SEQEND
 8
0
  0
POLYLINE
  8
0
 62
     7
 66
     1
 10
0
 20
0
 30
0.0
 70
     1
 40
0
 41
0
  0
VERTEX
  8
0
 10
21.0631
 20
24.4996
 30
0.0
 40
0
 41
0
  0
VERTEX
  8
0
 10
22.4803
 20
24.4996
 30
0.0
 40
0
 41
0
  0
VERTEX
  8
0
 10
22.4803
 20
24.3814
 30
0.0
 40
0
 41
0
  0
VERTEX
  8
0
 10
21.0631
 20
24.3814
 30
0.0
 40
0
 41
0
  0
VERTEX
  8
0
 10
21.0631
 20
24.4996
 30
0.0
 40
0
 41
0
  0
SEQEND
 8
0
  0
POLYLINE
  8
0
 62
     0
 66
     1
 10
0
 20
0
 30
0.0
 70
     1
 40
0
 41
0
  0
VERTEX
  8
0
 10
8.93701
 20
22.5704
 30
0.0
 40
0
 41
0
  0
VERTEX
  8
0
 10
16.1811
 20
22.5704
 30
0.0
 40
0
 41
0
  0
VERTEX
  8
0
 10
16.1811
 20
17.6885
 30
0.0
 40
0
 41
0
  0
VERTEX
  8
0
 10
8.93701
 20
17.6885
 30
0.0
 40
0
 41
0
  0
VERTEX
  8
0
 10
8.93701
 20
22.5704
 30
0.0
 40
0
 41
0
  0
SEQEND
 8
0
  0
POLYLINE
  8
0
 62
     7
 66
     1
 10
0
 20
0
 30
0.0
 70
     1
 40
0
 41
0
  0
VERTEX
  8
0
 10
8.93701
 20
17.8067
 30
0.0
 40
0
 41
0
  0
VERTEX
  8
0
 10
10.4331
 20
17.8067
 30
0.0
 40
0
 41
0
  0
VERTEX
  8
0
 10
10.4331
 20
17.6885
 30
0.0
 40
0
 41
0
  0
VERTEX
  8
0
 10
8.93701
 20
17.6885
 30
0.0
 40
0
 41
0
  0
VERTEX
  8
0
 10
8.93701
 20
17.8067
 30
0.0
 40
0
 41
0
  0
SEQEND
 8
0
  0
POLYLINE
  8
0
 62
     7
 66
     1
 10
0
 20
0
 30
0.0
 70
     1
 40
0
 41
0
  0
VERTEX
  8
0
 10
11.8504
 20
17.8067
 30
0.0
 40
0
 41
0
  0
VERTEX
  8
0
 10
13.2677
 20
17.8067
 30
0.0
 40
0
 41
0
  0
VERTEX
  8
0
 10
13.2677
 20
17.6885
 30
0.0
 40
0
 41
0
  0
VERTEX
  8
0
 10
11.8504
 20
17.6885
 30
0.0
 40
0
 41
0
  0
VERTEX
  8
0
 10
11.8504
 20
17.8067
 30
0.0
 40
0
 41
0
  0
SEQEND
 8
0
  0
POLYLINE
  8
0
 62
     7
 66
     1
 10
0
 20
0
 30
0.0
 70
     1
 40
0
 41
0
  0
VERTEX
  8
0
 10
14.685
 20
17.8067
 30
0.0
 40
0
 41
0
  0
VERTEX
  8
0
 10
16.1811
 20
17.8067
 30
0.0
 40
0
 41
0
  0
VERTEX
  8
0
 10
16.1811
 20
17.6885
 30
0.0
 40
0
 41
0
  0
VERTEX
  8
0
 10
14.685
 20
17.6885
 30
0.0
 40
0
 41
0
  0
VERTEX
  8
0
 10
14.685
 20
17.8067
 30
0.0
 40
0
 41
0
  0
SEQEND
 8
0
  0
POLYLINE
  8
0
 62
     7
 66
     1
 10
0
 20
0
 30
0.0
 70
     1
 40
0
 41
0
  0
VERTEX
  8
0
 10
8.93701
 20
17.8067
 30
0.0
 40
0
 41
0
  0
VERTEX
  8
0
 10
10.4331
 20
17.8067
 30
0.0
 40
0
 41
0
  0
VERTEX
  8
0
 10
10.4331
 20
17.6885
 30
0.0
 40
0
 41
0
  0
VERTEX
  8
0
 10
8.93701
 20
17.6885
 30
0.0
 40
0
 41
0
  0
VERTEX
  8
0
 10
8.93701
 20
17.8067
 30
0.0
 40
0
 41
0
  0
SEQEND
 8
0
  0
POLYLINE
  8
0
 62
     7
 66
     1
 10
0
 20
0
 30
0.0
 70
     1
 40
0
 41
0
  0
VERTEX
  8
0
 10
11.8504
 20
17.8067
 30
0.0
 40
0
 41
0
  0
VERTEX
  8
0
 10
13.2677
 20
17.8067
 30
0.0
 40
0
 41
0
  0
VERTEX
  8
0
 10
13.2677
 20
17.6885
 30
0.0
 40
0
 41
0
  0
VERTEX
  8
0
 10
11.8504
 20
17.6885
 30
0.0
 40
0
 41
0
  0
VERTEX
  8
0
 10
11.8504
 20
17.8067
 30
0.0
 40
0
 41
0
  0
SEQEND
 8
0
  0
POLYLINE
  8
0
 62
     7
 66
     1
 10
0
 20
0
 30
0.0
 70
     1
 40
0
 41
0
  0
VERTEX
  8
0
 10
14.685
 20
17.8067
 30
0.0
 40
0
 41
0
  0
VERTEX
  8
0
 10
16.1811
 20
17.8067
 30
0.0
 40
0
 41
0
  0
VERTEX
  8
0
 10
16.1811
 20
17.6885
 30
0.0
 40
0
 41
0
  0
VERTEX
  8
0
 10
14.685
 20
17.6885
 30
0.0
 40
0
 41
0
  0
VERTEX
  8
0
 10
14.685
 20
17.8067
 30
0.0
 40
0
 41
0
  0
SEQEND
 8
0
  0
POLYLINE
  8
0
 62
     7
 66
     1
 10
0
 20
0
 30
0.0
 70
     1
 40
0
 41
0
  0
VERTEX
  8
0
 10
8.93701
 20
22.5704
 30
0.0
 40
0
 41
0
  0
VERTEX
  8
0
 10
10.4331
 20
22.5704
 30
0.0
 40
0
 41
0
  0
VERTEX
  8
0
 10
10.4331
 20
22.4524
 30
0.0
 40
0
 41
0
  0
VERTEX
  8
0
 10
8.93701
 20
22.4524
 30
0.0
 40
0
 41
0
  0
VERTEX
  8
0
 10
8.93701
 20
22.5704
 30
0.0
 40
0
 41
0
  0
SEQEND
 8
0
  0
POLYLINE
  8
0
 62
     7
 66
     1
 10
0
 20
0
 30
0.0
 70
     1
 40
0
 41
0
  0
VERTEX
  8
0
 10
11.8504
 20
22.5704
 30
0.0
 40
0
 41
0
  0
VERTEX
  8
0
 10
13.2677
 20
22.5704
 30
0.0
 40
0
 41
0
  0
VERTEX
  8
0
 10
13.2677
 20
22.4524
 30
0.0
 40
0
 41
0
  0
VERTEX
  8
0
 10
11.8504
 20
22.4524
 30
0.0
 40
0
 41
0
  0
VERTEX
  8
0
 10
11.8504
 20
22.5704
 30
0.0
 40
0
 41
0
  0
SEQEND
 8
0
  0
POLYLINE
  8
0
 62
     7
 66
     1
 10
0
 20
0
 30
0.0
 70
     1
 40
0
 41
0
  0
VERTEX
  8
0
 10
14.685
 20
22.5704
 30
0.0
 40
0
 41
0
  0
VERTEX
  8
0
 10
16.1811
 20
22.5704
 30
0.0
 40
0
 41
0
  0
VERTEX
  8
0
 10
16.1811
 20
22.4524
 30
0.0
 40
0
 41
0
  0
VERTEX
  8
0
 10
14.685
 20
22.4524
 30
0.0
 40
0
 41
0
  0
VERTEX
  8
0
 10
14.685
 20
22.5704
 30
0.0
 40
0
 41
0
  0
SEQEND
 8
0
  0
POLYLINE
  8
0
 62
     0
 66
     1
 10
0
 20
0
 30
0.0
 70
     1
 40
0
 41
0
  0
VERTEX
  8
0
 10
0.196832
 20
26.9404
 30
0.0
 40
0
 41
0
  0
VERTEX
  8
0
 10
7.67719
 20
26.9404
 30
0.0
 40
0
 41
0
  0
VERTEX
  8
0
 10
7.67719
 20
22.8854
 30
0.0
 40
0
 41
0
  0
VERTEX
  8
0
 10
0.196832
 20
22.8854
 30
0.0
 40
0
 41
0
  0
VERTEX
  8
0
 10
0.196832
 20
26.9404
 30
0.0
 40
0
 41
0
  0
SEQEND
 8
0
  0
POLYLINE
  8
0
 62
     7
 66
     1
 10
0
 20
0
 30
0.0
 70
     1
 40
0
 41
0
  0
VERTEX
  8
0
 10
6.25982
 20
23.791
 30
0.0
 40
0
 41
0
  0
VERTEX
  8
0
 10
6.37793
 20
23.791
 30
0.0
 40
0
 41
0
  0
VERTEX
  8
0
 10
6.37793
 20
23.0822
 30
0.0
 40
0
 41
0
  0
VERTEX
  8
0
 10
6.25982
 20
23.0822
 30
0.0
 40
0
 41
0
  0
VERTEX
  8
0
 10
6.25982
 20
23.791
 30
0.0
 40
0
 41
0
  0
SEQEND
 8
0
  0
POLYLINE
  8
0
 62
     7
 66
     1
 10
0
 20
0
 30
0.0
 70
     1
 40
0
 41
0
  0
VERTEX
  8
0
 10
6.25982
 20
24.6571
 30
0.0
 40
0
 41
0
  0
VERTEX
  8
0
 10
6.37793
 20
24.6571
 30
0.0
 40
0
 41
0
  0
VERTEX
  8
0
 10
6.37793
 20
24.4996
 30
0.0
 40
0
 41
0
  0
VERTEX
  8
0
 10
6.25982
 20
24.4996
 30
0.0
 40
0
 41
0
  0
VERTEX
  8
0
 10
6.25982
 20
24.6571
 30
0.0
 40
0
 41
0
  0
SEQEND
 8
0
  0
POLYLINE
  8
0
 62
     7
 66
     1
 10
0
 20
0
 30
0.0
 70
     1
 40
0
 41
0
  0
VERTEX
  8
0
 10
1.49604
 20
23.791
 30
0.0
 40
0
 41
0
  0
VERTEX
  8
0
 10
1.61415
 20
23.791
 30
0.0
 40
0
 41
0
  0
VERTEX
  8
0
 10
1.61415
 20
23.0822
 30
0.0
 40
0
 41
0
  0
VERTEX
  8
0
 10
1.49604
 20
23.0822
 30
0.0
 40
0
 41
0
  0
VERTEX
  8
0
 10
1.49604
 20
23.791
 30
0.0
 40
0
 41
0
  0
SEQEND
 8
0
  0
POLYLINE
  8
0
 62
     7
 66
     1
 10
0
 20
0
 30
0.0
 70
     1
 40
0
 41
0
  0
VERTEX
  8
0
 10
1.49604
 20
24.6571
 30
0.0
 40
0
 41
0
  0
VERTEX
  8
0
 10
1.61415
 20
24.6571
 30
0.0
 40
0
 41
0
  0
VERTEX
  8
0
 10
1.61415
 20
24.4996
 30
0.0
 40
0
 41
0
  0
VERTEX
  8
0
 10
1.49604
 20
24.4996
 30
0.0
 40
0
 41
0
  0
VERTEX
  8
0
 10
1.49604
 20
24.6571
 30
0.0
 40
0
 41
0
  0
SEQEND
 8
0
  0
POLYLINE
  8
0
 62
     7
 66
     1
 10
0
 20
0
 30
0.0
 70
     1
 40
0
 41
0
  0
VERTEX
  8
0
 10
1.49604
 20
26.9404
 30
0.0
 40
0
 41
0
  0
VERTEX
  8
0
 10
6.37793
 20
26.9404
 30
0.0
 40
0
 41
0
  0
VERTEX
  8
0
 10
6.37793
 20
24.6571
 30
0.0
 40
0
 41
0
  0
VERTEX
  8
0
 10
1.49604
 20
24.6571
 30
0.0
 40
0
 41
0
  0
VERTEX
  8
0
 10
1.49604
 20
26.9404
 30
0.0
 40
0
 41
0
  0
SEQEND
 8
0
  0
POLYLINE
  8
0
 62
     7
 66
     1
 10
0
 20
0
 30
0.0
 70
     1
 40
0
 41
0
  0
VERTEX
  8
0
 10
6.81104
 20
26.9404
 30
0.0
 40
0
 41
0
  0
VERTEX
  8
0
 10
7.24408
 20
26.9404
 30
0.0
 40
0
 41
0
  0
VERTEX
  8
0
 10
7.24408
 20
26.8224
 30
0.0
 40
0
 41
0
  0
VERTEX
  8
0
 10
6.81104
 20
26.8224
 30
0.0
 40
0
 41
0
  0
VERTEX
  8
0
 10
6.81104
 20
26.9404
 30
0.0
 40
0
 41
0
  0
SEQEND
 8
0
  0
POLYLINE
  8
0
 62
     7
 66
     1
 10
0
 20
0
 30
0.0
 70
     1
 40
0
 41
0
  0
VERTEX
  8
0
 10
0.629937
 20
26.9404
 30
0.0
 40
0
 41
0
  0
VERTEX
  8
0
 10
1.06299
 20
26.9404
 30
0.0
 40
0
 41
0
  0
VERTEX
  8
0
 10
1.06299
 20
26.8224
 30
0.0
 40
0
 41
0
  0
VERTEX
  8
0
 10
0.629937
 20
26.8224
 30
0.0
 40
0
 41
0
  0
VERTEX
  8
0
 10
0.629937
 20
26.9404
 30
0.0
 40
0
 41
0
  0
SEQEND
 8
0
  0
POLYLINE
  8
0
 62
     7
 66
     1
 10
0
 20
0
 30
0.0
 70
     1
 40
0
 41
0
  0
VERTEX
  8
0
 10
1.81104
 20
24.4996
 30
0.0
 40
0
 41
0
  0
VERTEX
  8
0
 10
3.22835
 20
24.4996
 30
0.0
 40
0
 41
0
  0
VERTEX
  8
0
 10
3.22835
 20
24.3814
 30
0.0
 40
0
 41
0
  0
VERTEX
  8
0
 10
1.81104
 20
24.3814
 30
0.0
 40
0
 41
0
  0
VERTEX
  8
0
 10
1.81104
 20
24.4996
 30
0.0
 40
0
 41
0
  0
SEQEND
 8
0
  0
POLYLINE
  8
0
 62
     7
 66
     1
 10
0
 20
0
 30
0.0
 70
     1
 40
0
 41
0
  0
VERTEX
  8
0
 10
4.64567
 20
24.4996
 30
0.0
 40
0
 41
0
  0
VERTEX
  8
0
 10
6.06299
 20
24.4996
 30
0.0
 40
0
 41
0
  0
VERTEX
  8
0
 10
6.06299
 20
24.3814
 30
0.0
 40
0
 41
0
  0
VERTEX
  8
0
 10
4.64567
 20
24.3814
 30
0.0
 40
0
 41
0
  0
VERTEX
  8
0
 10
4.64567
 20
24.4996
 30
0.0
 40
0
 41
0
  0
SEQEND
 8
0
  0
POLYLINE
  8
0
 62
     7
 66
     1
 10
0
 20
0
 30
0.0
 70
     1
 40
0
 41
0
  0
VERTEX
  8
0
 10
0.196832
 20
23.6728
 30
0.0
 40
0
 41
0
  0
VERTEX
  8
0
 10
0.314942
 20
23.6728
 30
0.0
 40
0
 41
0
  0
VERTEX
  8
0
 10
0.314942
 20
22.8854
 30
0.0
 40
0
 41
0
  0
VERTEX
  8
0
 10
0.196832
 20
22.8854
 30
0.0
 40
0
 41
0
  0
VERTEX
  8
0
 10
0.196832
 20
23.6728
 30
0.0
 40
0
 41
0
  0
SEQEND
 8
0
  0
POLYLINE
  8
0
 62
     7
 66
     1
 10
0
 20
0
 30
0.0
 70
     1
 40
0
 41
0
  0
VERTEX
  8
0
 10
0.196832
 20
25.2476
 30
0.0
 40
0
 41
0
  0
VERTEX
  8
0
 10
0.314942
 20
25.2476
 30
0.0
 40
0
 41
0
  0
VERTEX
  8
0
 10
0.314942
 20
24.4601
 30
0.0
 40
0
 41
0
  0
VERTEX
  8
0
 10
0.196832
 20
24.4601
 30
0.0
 40
0
 41
0
  0
VERTEX
  8
0
 10
0.196832
 20
25.2476
 30
0.0
 40
0
 41
0
  0
SEQEND
 8
0
  0
POLYLINE
  8
0
 62
     7
 66
     1
 10
0
 20
0
 30
0.0
 70
     1
 40
0
 41
0
  0
VERTEX
  8
0
 10
0.196832
 20
26.9404
 30
0.0
 40
0
 41
0
  0
VERTEX
  8
0
 10
0.314942
 20
26.9404
 30
0.0
 40
0
 41
0
  0
VERTEX
  8
0
 10
0.314942
 20
26.035
 30
0.0
 40
0
 41
0
  0
VERTEX
  8
0
 10
0.196832
 20
26.035
 30
0.0
 40
0
 41
0
  0
VERTEX
  8
0
 10
0.196832
 20
26.9404
 30
0.0
 40
0
 41
0
  0
SEQEND
 8
0
  0
POLYLINE
  8
0
 62
     7
 66
     1
 10
0
 20
0
 30
0.0
 70
     1
 40
0
 41
0
  0
VERTEX
  8
0
 10
7.55908
 20
23.6728
 30
0.0
 40
0
 41
0
  0
VERTEX
  8
0
 10
7.67719
 20
23.6728
 30
0.0
 40
0
 41
0
  0
VERTEX
  8
0
 10
7.67719
 20
22.8854
 30
0.0
 40
0
 41
0
  0
VERTEX
  8
0
 10
7.55908
 20
22.8854
 30
0.0
 40
0
 41
0
  0
VERTEX
  8
0
 10
7.55908
 20
23.6728
 30
0.0
 40
0
 41
0
  0
SEQEND
 8
0
  0
POLYLINE
  8
0
 62
     7
 66
     1
 10
0
 20
0
 30
0.0
 70
     1
 40
0
 41
0
  0
VERTEX
  8
0
 10
7.55908
 20
25.2476
 30
0.0
 40
0
 41
0
  0
VERTEX
  8
0
 10
7.67719
 20
25.2476
 30
0.0
 40
0
 41
0
  0
VERTEX
  8
0
 10
7.67719
 20
24.4601
 30
0.0
 40
0
 41
0
  0
VERTEX
  8
0
 10
7.55908
 20
24.4601
 30
0.0
 40
0
 41
0
  0
VERTEX
  8
0
 10
7.55908
 20
25.2476
 30
0.0
 40
0
 41
0
  0
SEQEND
 8
0
  0
POLYLINE
  8
0
 62
     7
 66
     1
 10
0
 20
0
 30
0.0
 70
     1
 40
0
 41
0
  0
VERTEX
  8
0
 10
7.55908
 20
26.9404
 30
0.0
 40
0
 41
0
  0
VERTEX
  8
0
 10
7.67719
 20
26.9404
 30
0.0
 40
0
 41
0
  0
VERTEX
  8
0
 10
7.67719
 20
26.035
 30
0.0
 40
0
 41
0
  0
VERTEX
  8
0
 10
7.55908
 20
26.035
 30
0.0
 40
0
 41
0
  0
VERTEX
  8
0
 10
7.55908
 20
26.9404
 30
0.0
 40
0
 41
0
  0
SEQEND
 8
0
  0
POLYLINE
  8
0
 62
     7
 66
     1
 10
0
 20
0
 30
0.0
 70
     1
 40
0
 41
0
  0
VERTEX
  8
0
 10
5.47244
 20
30.4839
 30
0.0
 40
0
 41
0
  0
VERTEX
  8
0
 10
6.25982
 20
30.4839
 30
0.0
 40
0
 41
0
  0
VERTEX
  8
0
 10
6.25982
 20
30.3657
 30
0.0
 40
0
 41
0
  0
VERTEX
  8
0
 10
5.47244
 20
30.3657
 30
0.0
 40
0
 41
0
  0
VERTEX
  8
0
 10
5.47244
 20
30.4839
 30
0.0
 40
0
 41
0
  0
SEQEND
 8
0
  0
POLYLINE
  8
0
 62
     7
 66
     1
 10
0
 20
0
 30
0.0
 70
     1
 40
0
 41
0
  0
VERTEX
  8
0
 10
7.04725
 20
30.4839
 30
0.0
 40
0
 41
0
  0
VERTEX
  8
0
 10
7.83464
 20
30.4839
 30
0.0
 40
0
 41
0
  0
VERTEX
  8
0
 10
7.83464
 20
30.3657
 30
0.0
 40
0
 41
0
  0
VERTEX
  8
0
 10
7.04725
 20
30.3657
 30
0.0
 40
0
 41
0
  0
VERTEX
  8
0
 10
7.04725
 20
30.4839
 30
0.0
 40
0
 41
0
  0
SEQEND
 8
0
  0
POLYLINE
  8
0
 62
     7
 66
     1
 10
0
 20
0
 30
0.0
 70
     1
 40
0
 41
0
  0
VERTEX
  8
0
 10
1.10238
 20
30.4839
 30
0.0
 40
0
 41
0
  0
VERTEX
  8
0
 10
1.88976
 20
30.4839
 30
0.0
 40
0
 41
0
  0
VERTEX
  8
0
 10
1.88976
 20
30.3657
 30
0.0
 40
0
 41
0
  0
VERTEX
  8
0
 10
1.10238
 20
30.3657
 30
0.0
 40
0
 41
0
  0
VERTEX
  8
0
 10
1.10238
 20
30.4839
 30
0.0
 40
0
 41
0
  0
SEQEND
 8
0
  0
POLYLINE
  8
0
 62
     7
 66
     1
 10
0
 20
0
 30
0.0
 70
     1
 40
0
 41
0
  0
VERTEX
  8
0
 10
2.67719
 20
30.4839
 30
0.0
 40
0
 41
0
  0
VERTEX
  8
0
 10
3.46457
 20
30.4839
 30
0.0
 40
0
 41
0
  0
VERTEX
  8
0
 10
3.46457
 20
30.3657
 30
0.0
 40
0
 41
0
  0
VERTEX
  8
0
 10
2.67719
 20
30.3657
 30
0.0
 40
0
 41
0
  0
VERTEX
  8
0
 10
2.67719
 20
30.4839
 30
0.0
 40
0
 41
0
  0
SEQEND
 8
0
  0
POLYLINE
  8
0
 62
     7
 66
     1
 10
0
 20
0
 30
0.0
 70
     1
 40
0
 41
0
  0
VERTEX
  8
0
 10
18.9567
 20
33.9878
 30
0.0
 40
0
 41
0
  0
VERTEX
  8
0
 10
21.7519
 20
33.9878
 30
0.0
 40
0
 41
0
  0
VERTEX
  8
0
 10
21.7519
 20
33.0429
 30
0.0
 40
0
 41
0
  0
VERTEX
  8
0
 10
18.9567
 20
33.0429
 30
0.0
 40
0
 41
0
  0
VERTEX
  8
0
 10
18.9567
 20
33.9878
 30
0.0
 40
0
 41
0
  0
SEQEND
 8
0
  0
POLYLINE
  8
0
 62
     7
 66
     1
 10
0
 20
0
 30
0.0
 70
     1
 40
0
 41
0
  0
VERTEX
  8
0
 10
21.0631
 20
31.5468
 30
0.0
 40
0
 41
0
  0
VERTEX
  8
0
 10
21.0631
 20
31.5111
 30
0.0
 40
0
 41
0
  0
VERTEX
  8
0
 10
21.0486
 20
31.404
 30
0.0
 40
0
 41
0
  0
VERTEX
  8
0
 10
21.0072
 20
31.271
 30
0.0
 40
0
 41
0
  0
VERTEX
  8
0
 10
20.9419
 20
31.1506
 30
0.0
 40
0
 41
0
  0
VERTEX
  8
0
 10
20.8554
 20
31.0457
 30
0.0
 40
0
 41
0
  0
VERTEX
  8
0
 10
20.7506
 20
30.9592
 30
0.0
 40
0
 41
0
  0
VERTEX
  8
0
 10
20.6301
 20
30.8939
 30
0.0
 40
0
 41
0
  0
VERTEX
  8
0
 10
20.4971
 20
30.8526
 30
0.0
 40
0
 41
0
  0
VERTEX
  8
0
 10
20.39
 20
30.8382
 30
0.0
 40
0
 41
0
  0
VERTEX
  8
0
 10
20.3543
 20
30.8382
 30
0.0
 40
0
 41
0
  0
VERTEX
  8
0
 10
20.3186
 20
30.8382
 30
0.0
 40
0
 41
0
  0
VERTEX
  8
0
 10
20.2115
 20
30.8526
 30
0.0
 40
0
 41
0
  0
VERTEX
  8
0
 10
20.0785
 20
30.8939
 30
0.0
 40
0
 41
0
  0
VERTEX
  8
0
 10
19.9581
 20
30.9592
 30
0.0
 40
0
 41
0
  0
VERTEX
  8
0
 10
19.8532
 20
31.0457
 30
0.0
 40
0
 41
0
  0
VERTEX
  8
0
 10
19.7667
 20
31.1506
 30
0.0
 40
0
 41
0
  0
VERTEX
  8
0
 10
19.7014
 20
31.271
 30
0.0
 40
0
 41
0
  0
VERTEX
  8
0
 10
19.66
 20
31.404
 30
0.0
 40
0
 41
0
  0
VERTEX
  8
0
 10
19.6457
 20
31.5111
 30
0.0
 40
0
 41
0
  0
VERTEX
  8
0
 10
19.6457
 20
31.5468
 30
0.0
 40
0
 41
0
  0
VERTEX
  8
0
 10
19.6457
 20
31.5826
 30
0.0
 40
0
 41
0
  0
VERTEX
  8
0
 10
19.66
 20
31.6897
 30
0.0
 40
0
 41
0
  0
VERTEX
  8
0
 10
19.7014
 20
31.8226
 30
0.0
 40
0
 41
0
  0
VERTEX
  8
0
 10
19.7667
 20
31.9431
 30
0.0
 40
0
 41
0
  0
VERTEX
  8
0
 10
19.8532
 20
32.0479
 30
0.0
 40
0
 41
0
  0
VERTEX
  8
0
 10
19.9581
 20
32.1344
 30
0.0
 40
0
 41
0
  0
VERTEX
  8
0
 10
20.0785
 20
32.1999
 30
0.0
 40
0
 41
0
  0
VERTEX
  8
0
 10
20.2115
 20
32.2411
 30
0.0
 40
0
 41
0
  0
VERTEX
  8
0
 10
20.3186
 20
32.2554
 30
0.0
 40
0
 41
0
  0
VERTEX
  8
0
 10
20.3543
 20
32.2554
 30
0.0
 40
0
 41
0
  0
VERTEX
  8
0
 10
20.39
 20
32.2554
 30
0.0
 40
0
 41
0
  0
VERTEX
  8
0
 10
20.4971
 20
32.2411
 30
0.0
 40
0
 41
0
  0
VERTEX
  8
0
 10
20.6301
 20
32.1999
 30
0.0
 40
0
 41
0
  0
VERTEX
  8
0
 10
20.7506
 20
32.1344
 30
0.0
 40
0
 41
0
  0
VERTEX
  8
0
 10
20.8554
 20
32.0479
 30
0.0
 40
0
 41
0
  0
VERTEX
  8
0
 10
20.9419
 20
31.9431
 30
0.0
 40
0
 41
0
  0
VERTEX
  8
0
 10
21.0072
 20
31.8226
 30
0.0
 40
0
 41
0
  0
VERTEX
  8
0
 10
21.0486
 20
31.6897
 30
0.0
 40
0
 41
0
  0
VERTEX
  8
0
 10
21.0631
 20
31.5826
 30
0.0
 40
0
 41
0
  0
VERTEX
  8
0
 10
21.0631
 20
31.5468
 30
0.0
 40
0
 41
0
  0
SEQEND
 8
0
  0
POLYLINE
  8
0
 62
     7
 66
     1
 10
0
 20
0
 30
0.0
 70
     1
 40
0
 41
0
  0
VERTEX
  8
0
 10
18.3465
 20
29.1453
 30
0.0
 40
0
 41
0
  0
VERTEX
  8
0
 10
22.3622
 20
29.1453
 30
0.0
 40
0
 41
0
  0
VERTEX
  8
0
 10
22.3622
 20
28.6728
 30
0.0
 40
0
 41
0
  0
VERTEX
  8
0
 10
18.3465
 20
28.6728
 30
0.0
 40
0
 41
0
  0
VERTEX
  8
0
 10
18.3465
 20
29.1453
 30
0.0
 40
0
 41
0
  0
SEQEND
 8
0
  0
ENDSEC
  0
EOF
